<svg width="1115" height="22" viewBox="0 0 1115 22" fill="none" xmlns="http://www.w3.org/2000/svg">
<path d="M171.746 13.14C170.495 13.14 169.543 12.804 168.89 12.132C168.246 11.46 167.901 10.5313 167.854 9.346C167.845 9.094 167.84 8.68333 167.84 8.114C167.84 7.53533 167.845 7.11533 167.854 6.854C167.901 5.678 168.251 4.754 168.904 4.082C169.557 3.40067 170.505 3.06 171.746 3.06C172.577 3.06 173.281 3.20933 173.86 3.508C174.439 3.79733 174.877 4.18 175.176 4.656C175.475 5.132 175.638 5.64067 175.666 6.182V6.21C175.666 6.28467 175.633 6.35 175.568 6.406C175.512 6.45267 175.447 6.476 175.372 6.476H174.602C174.415 6.476 174.299 6.36867 174.252 6.154C174.093 5.454 173.809 4.964 173.398 4.684C172.987 4.39467 172.437 4.25 171.746 4.25C170.141 4.25 169.31 5.14133 169.254 6.924C169.245 7.176 169.24 7.56333 169.24 8.086C169.24 8.60867 169.245 9.00533 169.254 9.276C169.31 11.0587 170.141 11.95 171.746 11.95C172.437 11.95 172.987 11.81 173.398 11.53C173.818 11.2407 174.103 10.746 174.252 10.046C174.28 9.92467 174.322 9.84067 174.378 9.794C174.434 9.74733 174.509 9.724 174.602 9.724H175.372C175.456 9.724 175.526 9.752 175.582 9.808C175.647 9.85467 175.675 9.92 175.666 10.004C175.638 10.5547 175.475 11.068 175.176 11.544C174.877 12.02 174.439 12.4073 173.86 12.706C173.281 12.9953 172.577 13.14 171.746 13.14ZM180.342 13.14C179.316 13.14 178.518 12.8507 177.948 12.272C177.388 11.6933 177.09 10.9233 177.052 9.962L177.038 9.36L177.052 8.758C177.09 7.806 177.393 7.04067 177.962 6.462C178.532 5.874 179.325 5.58 180.342 5.58C181.36 5.58 182.153 5.874 182.722 6.462C183.292 7.04067 183.595 7.806 183.632 8.758C183.642 8.86067 183.646 9.06133 183.646 9.36C183.646 9.65867 183.642 9.85933 183.632 9.962C183.595 10.9233 183.292 11.6933 182.722 12.272C182.162 12.8507 181.369 13.14 180.342 13.14ZM180.342 12.062C180.93 12.062 181.392 11.8753 181.728 11.502C182.074 11.1287 182.26 10.592 182.288 9.892C182.298 9.79867 182.302 9.62133 182.302 9.36C182.302 9.09867 182.298 8.92133 182.288 8.828C182.26 8.128 182.074 7.59133 181.728 7.218C181.392 6.84467 180.93 6.658 180.342 6.658C179.754 6.658 179.288 6.84467 178.942 7.218C178.597 7.59133 178.415 8.128 178.396 8.828L178.382 9.36L178.396 9.892C178.415 10.592 178.597 11.1287 178.942 11.502C179.288 11.8753 179.754 12.062 180.342 12.062ZM185.721 13C185.628 13 185.549 12.972 185.483 12.916C185.427 12.8507 185.399 12.7713 185.399 12.678V6.042C185.399 5.94867 185.427 5.874 185.483 5.818C185.549 5.75267 185.628 5.72 185.721 5.72H186.379C186.473 5.72 186.547 5.75267 186.603 5.818C186.669 5.874 186.701 5.94867 186.701 6.042V6.658C186.972 6.31267 187.289 6.04667 187.653 5.86C188.027 5.67333 188.489 5.58 189.039 5.58C189.935 5.58 190.631 5.86933 191.125 6.448C191.629 7.01733 191.881 7.778 191.881 8.73V12.678C191.881 12.7713 191.849 12.8507 191.783 12.916C191.727 12.972 191.653 13 191.559 13H190.859C190.766 13 190.687 12.972 190.621 12.916C190.565 12.8507 190.537 12.7713 190.537 12.678V8.8C190.537 8.13733 190.374 7.624 190.047 7.26C189.73 6.896 189.268 6.714 188.661 6.714C188.073 6.714 187.607 6.90067 187.261 7.274C186.916 7.638 186.743 8.14667 186.743 8.8V12.678C186.743 12.7713 186.711 12.8507 186.645 12.916C186.589 12.972 186.515 13 186.421 13H185.721ZM196.636 13C195.161 13 194.424 12.1787 194.424 10.536V6.84H193.332C193.238 6.84 193.159 6.812 193.094 6.756C193.038 6.69067 193.01 6.61133 193.01 6.518V6.042C193.01 5.94867 193.038 5.874 193.094 5.818C193.159 5.75267 193.238 5.72 193.332 5.72H194.424V3.382C194.424 3.28867 194.452 3.214 194.508 3.158C194.573 3.09267 194.652 3.06 194.746 3.06H195.404C195.497 3.06 195.572 3.09267 195.628 3.158C195.693 3.214 195.726 3.28867 195.726 3.382V5.72H197.462C197.555 5.72 197.63 5.75267 197.686 5.818C197.751 5.874 197.784 5.94867 197.784 6.042V6.518C197.784 6.61133 197.751 6.69067 197.686 6.756C197.63 6.812 197.555 6.84 197.462 6.84H195.726V10.438C195.726 10.9047 195.805 11.2593 195.964 11.502C196.122 11.7353 196.384 11.852 196.748 11.852H197.602C197.695 11.852 197.77 11.8847 197.826 11.95C197.891 12.006 197.924 12.0807 197.924 12.174V12.678C197.924 12.7713 197.891 12.8507 197.826 12.916C197.77 12.972 197.695 13 197.602 13H196.636ZM201.293 13.14C200.835 13.14 200.411 13.0467 200.019 12.86C199.627 12.6733 199.314 12.4213 199.081 12.104C198.857 11.7773 198.745 11.418 198.745 11.026C198.745 10.41 198.997 9.906 199.501 9.514C200.014 9.11267 200.705 8.85133 201.573 8.73L203.659 8.436V8.03C203.659 7.078 203.113 6.602 202.021 6.602C201.61 6.602 201.274 6.69067 201.013 6.868C200.751 7.036 200.555 7.23667 200.425 7.47C200.397 7.554 200.359 7.61467 200.313 7.652C200.275 7.68933 200.219 7.708 200.145 7.708H199.543C199.459 7.708 199.384 7.68 199.319 7.624C199.263 7.55867 199.235 7.484 199.235 7.4C199.244 7.176 199.347 6.924 199.543 6.644C199.748 6.35467 200.061 6.10733 200.481 5.902C200.901 5.68733 201.419 5.58 202.035 5.58C203.08 5.58 203.831 5.82733 204.289 6.322C204.746 6.80733 204.975 7.414 204.975 8.142V12.678C204.975 12.7713 204.942 12.8507 204.877 12.916C204.821 12.972 204.746 13 204.653 13H204.009C203.915 13 203.836 12.972 203.771 12.916C203.715 12.8507 203.687 12.7713 203.687 12.678V12.076C203.481 12.3747 203.183 12.6267 202.791 12.832C202.399 13.0373 201.899 13.14 201.293 13.14ZM201.587 12.09C202.193 12.09 202.688 11.894 203.071 11.502C203.463 11.1007 203.659 10.5267 203.659 9.78V9.388L202.035 9.626C201.372 9.71933 200.873 9.878 200.537 10.102C200.201 10.3167 200.033 10.592 200.033 10.928C200.033 11.3013 200.187 11.5907 200.495 11.796C200.803 11.992 201.167 12.09 201.587 12.09ZM209.927 13.14C208.929 13.14 208.145 12.86 207.575 12.3C207.015 11.7307 206.717 10.9373 206.679 9.92L206.665 9.36L206.679 8.8C206.717 7.78267 207.015 6.994 207.575 6.434C208.145 5.86467 208.929 5.58 209.927 5.58C210.599 5.58 211.169 5.70133 211.635 5.944C212.102 6.18667 212.447 6.48533 212.671 6.84C212.905 7.19467 213.031 7.54933 213.049 7.904C213.059 7.99733 213.031 8.072 212.965 8.128C212.9 8.184 212.821 8.212 212.727 8.212H212.055C211.962 8.212 211.892 8.19333 211.845 8.156C211.799 8.11867 211.752 8.044 211.705 7.932C211.547 7.484 211.323 7.16667 211.033 6.98C210.744 6.784 210.38 6.686 209.941 6.686C209.363 6.686 208.901 6.868 208.555 7.232C208.219 7.58667 208.037 8.13267 208.009 8.87L207.995 9.374L208.009 9.85C208.037 10.5967 208.219 11.1473 208.555 11.502C208.891 11.8567 209.353 12.034 209.941 12.034C210.38 12.034 210.744 11.9407 211.033 11.754C211.323 11.558 211.547 11.236 211.705 10.788C211.752 10.676 211.799 10.6013 211.845 10.564C211.892 10.5173 211.962 10.494 212.055 10.494H212.727C212.821 10.494 212.9 10.5267 212.965 10.592C213.031 10.648 213.059 10.7227 213.049 10.816C213.031 11.1613 212.905 11.516 212.671 11.88C212.447 12.2347 212.102 12.5333 211.635 12.776C211.178 13.0187 210.609 13.14 209.927 13.14ZM217.554 13C216.079 13 215.342 12.1787 215.342 10.536V6.84H214.25C214.156 6.84 214.077 6.812 214.012 6.756C213.956 6.69067 213.928 6.61133 213.928 6.518V6.042C213.928 5.94867 213.956 5.874 214.012 5.818C214.077 5.75267 214.156 5.72 214.25 5.72H215.342V3.382C215.342 3.28867 215.37 3.214 215.426 3.158C215.491 3.09267 215.57 3.06 215.664 3.06H216.322C216.415 3.06 216.49 3.09267 216.546 3.158C216.611 3.214 216.644 3.28867 216.644 3.382V5.72H218.38C218.473 5.72 218.548 5.75267 218.604 5.818C218.669 5.874 218.702 5.94867 218.702 6.042V6.518C218.702 6.61133 218.669 6.69067 218.604 6.756C218.548 6.812 218.473 6.84 218.38 6.84H216.644V10.438C216.644 10.9047 216.723 11.2593 216.882 11.502C217.04 11.7353 217.302 11.852 217.666 11.852H218.52C218.613 11.852 218.688 11.8847 218.744 11.95C218.809 12.006 218.842 12.0807 218.842 12.174V12.678C218.842 12.7713 218.809 12.8507 218.744 12.916C218.688 12.972 218.613 13 218.52 13H217.554ZM223.163 13.14C222.136 13.14 221.338 12.8507 220.769 12.272C220.209 11.6933 219.91 10.9233 219.873 9.962L219.859 9.36L219.873 8.758C219.91 7.806 220.213 7.04067 220.783 6.462C221.352 5.874 222.145 5.58 223.163 5.58C224.18 5.58 224.973 5.874 225.543 6.462C226.112 7.04067 226.415 7.806 226.453 8.758C226.462 8.86067 226.467 9.06133 226.467 9.36C226.467 9.65867 226.462 9.85933 226.453 9.962C226.415 10.9233 226.112 11.6933 225.543 12.272C224.983 12.8507 224.189 13.14 223.163 13.14ZM223.163 12.062C223.751 12.062 224.213 11.8753 224.549 11.502C224.894 11.1287 225.081 10.592 225.109 9.892C225.118 9.79867 225.123 9.62133 225.123 9.36C225.123 9.09867 225.118 8.92133 225.109 8.828C225.081 8.128 224.894 7.59133 224.549 7.218C224.213 6.84467 223.751 6.658 223.163 6.658C222.575 6.658 222.108 6.84467 221.763 7.218C221.417 7.59133 221.235 8.128 221.217 8.828L221.203 9.36L221.217 9.892C221.235 10.592 221.417 11.1287 221.763 11.502C222.108 11.8753 222.575 12.062 223.163 12.062Z" fill="white"/>
<path d="M1.54 13C1.44667 13 1.36733 12.972 1.302 12.916C1.246 12.8507 1.218 12.7713 1.218 12.678V3.536C1.218 3.43333 1.246 3.354 1.302 3.298C1.36733 3.23267 1.44667 3.2 1.54 3.2H5.096C6.15067 3.2 6.98133 3.45667 7.588 3.97C8.19467 4.48333 8.498 5.22533 8.498 6.196C8.498 7.16667 8.19467 7.90867 7.588 8.422C6.99067 8.926 6.16 9.178 5.096 9.178H2.618V12.678C2.618 12.7713 2.58533 12.8507 2.52 12.916C2.45467 12.972 2.37533 13 2.282 13H1.54ZM5.026 8.002C5.70733 8.002 6.22067 7.848 6.566 7.54C6.92067 7.232 7.098 6.784 7.098 6.196C7.098 5.608 6.92533 5.16 6.58 4.852C6.23467 4.53467 5.71667 4.376 5.026 4.376H2.604V8.002H5.026ZM10.3404 13C10.2471 13 10.1678 12.972 10.1024 12.916C10.0464 12.8507 10.0184 12.7713 10.0184 12.678V6.056C10.0184 5.96267 10.0464 5.88333 10.1024 5.818C10.1678 5.75267 10.2471 5.72 10.3404 5.72H10.9844C11.0778 5.72 11.1571 5.75267 11.2224 5.818C11.2878 5.88333 11.3204 5.96267 11.3204 6.056V6.672C11.7031 6.03733 12.3564 5.72 13.2804 5.72H13.8264C13.9198 5.72 13.9944 5.75267 14.0504 5.818C14.1158 5.874 14.1484 5.94867 14.1484 6.042V6.616C14.1484 6.70933 14.1158 6.784 14.0504 6.84C13.9944 6.896 13.9198 6.924 13.8264 6.924H12.9864C12.4824 6.924 12.0858 7.07333 11.7964 7.372C11.5071 7.66133 11.3624 8.058 11.3624 8.562V12.678C11.3624 12.7713 11.3298 12.8507 11.2644 12.916C11.1991 12.972 11.1198 13 11.0264 13H10.3404ZM15.5468 4.362C15.4534 4.362 15.3741 4.334 15.3088 4.278C15.2528 4.21267 15.2248 4.13333 15.2248 4.04V3.284C15.2248 3.19067 15.2528 3.11133 15.3088 3.046C15.3741 2.98067 15.4534 2.948 15.5468 2.948H16.4288C16.5221 2.948 16.6014 2.98067 16.6668 3.046C16.7321 3.11133 16.7648 3.19067 16.7648 3.284V4.04C16.7648 4.13333 16.7321 4.21267 16.6668 4.278C16.6014 4.334 16.5221 4.362 16.4288 4.362H15.5468ZM15.6588 13C15.5654 13 15.4861 12.972 15.4208 12.916C15.3648 12.8507 15.3368 12.7713 15.3368 12.678V6.042C15.3368 5.94867 15.3648 5.874 15.4208 5.818C15.4861 5.75267 15.5654 5.72 15.6588 5.72H16.3308C16.4241 5.72 16.4988 5.75267 16.5548 5.818C16.6201 5.874 16.6528 5.94867 16.6528 6.042V12.678C16.6528 12.7713 16.6201 12.8507 16.5548 12.916C16.4988 12.972 16.4241 13 16.3308 13H15.6588ZM21.2614 13C21.0187 13 20.8461 12.8833 20.7434 12.65L18.1534 6.154L18.1254 6.014C18.1254 5.93 18.1534 5.86 18.2094 5.804C18.2654 5.748 18.3354 5.72 18.4194 5.72H19.0914C19.2501 5.72 19.3667 5.79933 19.4414 5.958L21.5694 11.474L23.6974 5.958C23.7814 5.79933 23.8934 5.72 24.0334 5.72H24.7194C24.7941 5.72 24.8594 5.748 24.9154 5.804C24.9807 5.86 25.0134 5.93 25.0134 6.014L24.9854 6.154L22.3814 12.65C22.2787 12.8833 22.1061 13 21.8634 13H21.2614ZM28.2359 13.14C27.7786 13.14 27.3539 13.0467 26.9619 12.86C26.5699 12.6733 26.2573 12.4213 26.0239 12.104C25.7999 11.7773 25.6879 11.418 25.6879 11.026C25.6879 10.41 25.9399 9.906 26.4439 9.514C26.9573 9.11267 27.6479 8.85133 28.5159 8.73L30.6019 8.436V8.03C30.6019 7.078 30.0559 6.602 28.9639 6.602C28.5533 6.602 28.2173 6.69067 27.9559 6.868C27.6946 7.036 27.4986 7.23667 27.3679 7.47C27.3399 7.554 27.3026 7.61467 27.2559 7.652C27.2186 7.68933 27.1626 7.708 27.0879 7.708H26.4859C26.4019 7.708 26.3273 7.68 26.2619 7.624C26.2059 7.55867 26.1779 7.484 26.1779 7.4C26.1873 7.176 26.2899 6.924 26.4859 6.644C26.6913 6.35467 27.0039 6.10733 27.4239 5.902C27.8439 5.68733 28.3619 5.58 28.9779 5.58C30.0233 5.58 30.7746 5.82733 31.2319 6.322C31.6893 6.80733 31.9179 7.414 31.9179 8.142V12.678C31.9179 12.7713 31.8853 12.8507 31.8199 12.916C31.7639 12.972 31.6893 13 31.5959 13H30.9519C30.8586 13 30.7793 12.972 30.7139 12.916C30.6579 12.8507 30.6299 12.7713 30.6299 12.678V12.076C30.4246 12.3747 30.1259 12.6267 29.7339 12.832C29.3419 13.0373 28.8426 13.14 28.2359 13.14ZM28.5299 12.09C29.1366 12.09 29.6313 11.894 30.0139 11.502C30.4059 11.1007 30.6019 10.5267 30.6019 9.78V9.388L28.9779 9.626C28.3153 9.71933 27.8159 9.878 27.4799 10.102C27.1439 10.3167 26.9759 10.592 26.9759 10.928C26.9759 11.3013 27.1299 11.5907 27.4379 11.796C27.7459 11.992 28.1099 12.09 28.5299 12.09ZM36.8705 13.14C35.8719 13.14 35.0879 12.86 34.5185 12.3C33.9585 11.7307 33.6599 10.9373 33.6225 9.92L33.6085 9.36L33.6225 8.8C33.6599 7.78267 33.9585 6.994 34.5185 6.434C35.0879 5.86467 35.8719 5.58 36.8705 5.58C37.5425 5.58 38.1119 5.70133 38.5785 5.944C39.0452 6.18667 39.3905 6.48533 39.6145 6.84C39.8479 7.19467 39.9739 7.54933 39.9925 7.904C40.0019 7.99733 39.9739 8.072 39.9085 8.128C39.8432 8.184 39.7639 8.212 39.6705 8.212H38.9985C38.9052 8.212 38.8352 8.19333 38.7885 8.156C38.7419 8.11867 38.6952 8.044 38.6485 7.932C38.4899 7.484 38.2659 7.16667 37.9765 6.98C37.6872 6.784 37.3232 6.686 36.8845 6.686C36.3059 6.686 35.8439 6.868 35.4985 7.232C35.1625 7.58667 34.9805 8.13267 34.9525 8.87L34.9385 9.374L34.9525 9.85C34.9805 10.5967 35.1625 11.1473 35.4985 11.502C35.8345 11.8567 36.2965 12.034 36.8845 12.034C37.3232 12.034 37.6872 11.9407 37.9765 11.754C38.2659 11.558 38.4899 11.236 38.6485 10.788C38.6952 10.676 38.7419 10.6013 38.7885 10.564C38.8352 10.5173 38.9052 10.494 38.9985 10.494H39.6705C39.7639 10.494 39.8432 10.5267 39.9085 10.592C39.9739 10.648 40.0019 10.7227 39.9925 10.816C39.9739 11.1613 39.8479 11.516 39.6145 11.88C39.3905 12.2347 39.0452 12.5333 38.5785 12.776C38.1212 13.0187 37.5519 13.14 36.8705 13.14ZM41.8651 4.362C41.7718 4.362 41.6925 4.334 41.6271 4.278C41.5711 4.21267 41.5431 4.13333 41.5431 4.04V3.284C41.5431 3.19067 41.5711 3.11133 41.6271 3.046C41.6925 2.98067 41.7718 2.948 41.8651 2.948H42.7471C42.8405 2.948 42.9198 2.98067 42.9851 3.046C43.0505 3.11133 43.0831 3.19067 43.0831 3.284V4.04C43.0831 4.13333 43.0505 4.21267 42.9851 4.278C42.9198 4.334 42.8405 4.362 42.7471 4.362H41.8651ZM41.9771 13C41.8838 13 41.8045 12.972 41.7391 12.916C41.6831 12.8507 41.6551 12.7713 41.6551 12.678V6.042C41.6551 5.94867 41.6831 5.874 41.7391 5.818C41.8045 5.75267 41.8838 5.72 41.9771 5.72H42.6491C42.7425 5.72 42.8171 5.75267 42.8731 5.818C42.9385 5.874 42.9711 5.94867 42.9711 6.042V12.678C42.9711 12.7713 42.9385 12.8507 42.8731 12.916C42.8171 12.972 42.7425 13 42.6491 13H41.9771ZM47.7058 13.14C46.7351 13.14 46.0024 12.8227 45.5078 12.188C45.0131 11.5533 44.7518 10.7507 44.7238 9.78L44.7098 9.36L44.7238 8.94C44.7518 7.97867 45.0131 7.18067 45.5078 6.546C46.0024 5.902 46.7351 5.58 47.7058 5.58C48.6671 5.58 49.4231 5.92067 49.9738 6.602V3.382C49.9738 3.28867 50.0018 3.214 50.0578 3.158C50.1231 3.09267 50.2024 3.06 50.2958 3.06H50.9678C51.0611 3.06 51.1358 3.09267 51.1918 3.158C51.2571 3.214 51.2898 3.28867 51.2898 3.382V12.678C51.2898 12.7713 51.2571 12.8507 51.1918 12.916C51.1358 12.972 51.0611 13 50.9678 13H50.3378C50.2444 13 50.1651 12.972 50.0998 12.916C50.0438 12.8507 50.0158 12.7713 50.0158 12.678V12.09C49.4744 12.79 48.7044 13.14 47.7058 13.14ZM47.9998 12.006C48.6438 12.006 49.1244 11.796 49.4418 11.376C49.7684 10.9467 49.9458 10.438 49.9738 9.85C49.9831 9.74733 49.9878 9.57 49.9878 9.318C49.9878 9.05667 49.9831 8.87467 49.9738 8.772C49.9551 8.22133 49.7778 7.74067 49.4418 7.33C49.1058 6.91933 48.6251 6.714 47.9998 6.714C47.3371 6.714 46.8518 6.91933 46.5438 7.33C46.2451 7.74067 46.0818 8.282 46.0538 8.954L46.0398 9.36C46.0398 11.124 46.6931 12.006 47.9998 12.006ZM55.4019 13.14C54.9446 13.14 54.5199 13.0467 54.1279 12.86C53.7359 12.6733 53.4233 12.4213 53.1899 12.104C52.9659 11.7773 52.8539 11.418 52.8539 11.026C52.8539 10.41 53.1059 9.906 53.6099 9.514C54.1233 9.11267 54.8139 8.85133 55.6819 8.73L57.7679 8.436V8.03C57.7679 7.078 57.2219 6.602 56.1299 6.602C55.7193 6.602 55.3833 6.69067 55.1219 6.868C54.8606 7.036 54.6646 7.23667 54.5339 7.47C54.5059 7.554 54.4686 7.61467 54.4219 7.652C54.3846 7.68933 54.3286 7.708 54.2539 7.708H53.6519C53.5679 7.708 53.4933 7.68 53.4279 7.624C53.3719 7.55867 53.3439 7.484 53.3439 7.4C53.3533 7.176 53.4559 6.924 53.6519 6.644C53.8573 6.35467 54.1699 6.10733 54.5899 5.902C55.0099 5.68733 55.5279 5.58 56.1439 5.58C57.1893 5.58 57.9406 5.82733 58.3979 6.322C58.8553 6.80733 59.0839 7.414 59.0839 8.142V12.678C59.0839 12.7713 59.0513 12.8507 58.9859 12.916C58.9299 12.972 58.8553 13 58.7619 13H58.1179C58.0246 13 57.9453 12.972 57.8799 12.916C57.8239 12.8507 57.7959 12.7713 57.7959 12.678V12.076C57.5906 12.3747 57.2919 12.6267 56.8999 12.832C56.5079 13.0373 56.0086 13.14 55.4019 13.14ZM55.6959 12.09C56.3026 12.09 56.7973 11.894 57.1799 11.502C57.5719 11.1007 57.7679 10.5267 57.7679 9.78V9.388L56.1439 9.626C55.4813 9.71933 54.9819 9.878 54.6459 10.102C54.3099 10.3167 54.1419 10.592 54.1419 10.928C54.1419 11.3013 54.2959 11.5907 54.6039 11.796C54.9119 11.992 55.2759 12.09 55.6959 12.09ZM63.7565 13.14C62.7859 13.14 62.0532 12.8227 61.5585 12.188C61.0639 11.5533 60.8025 10.7507 60.7745 9.78L60.7605 9.36L60.7745 8.94C60.8025 7.97867 61.0639 7.18067 61.5585 6.546C62.0532 5.902 62.7859 5.58 63.7565 5.58C64.7179 5.58 65.4739 5.92067 66.0245 6.602V3.382C66.0245 3.28867 66.0525 3.214 66.1085 3.158C66.1739 3.09267 66.2532 3.06 66.3465 3.06H67.0185C67.1119 3.06 67.1865 3.09267 67.2425 3.158C67.3079 3.214 67.3405 3.28867 67.3405 3.382V12.678C67.3405 12.7713 67.3079 12.8507 67.2425 12.916C67.1865 12.972 67.1119 13 67.0185 13H66.3885C66.2952 13 66.2159 12.972 66.1505 12.916C66.0945 12.8507 66.0665 12.7713 66.0665 12.678V12.09C65.5252 12.79 64.7552 13.14 63.7565 13.14ZM64.0505 12.006C64.6945 12.006 65.1752 11.796 65.4925 11.376C65.8192 10.9467 65.9965 10.438 66.0245 9.85C66.0339 9.74733 66.0385 9.57 66.0385 9.318C66.0385 9.05667 66.0339 8.87467 66.0245 8.772C66.0059 8.22133 65.8285 7.74067 65.4925 7.33C65.1565 6.91933 64.6759 6.714 64.0505 6.714C63.3879 6.714 62.9025 6.91933 62.5945 7.33C62.2959 7.74067 62.1325 8.282 62.1045 8.954L62.0905 9.36C62.0905 11.124 62.7439 12.006 64.0505 12.006ZM73.7455 15.66C73.6709 15.66 73.6055 15.632 73.5495 15.576C73.4935 15.52 73.4655 15.4547 73.4655 15.38C73.4655 15.3147 73.4889 15.2307 73.5355 15.128L74.6135 12.566L71.9395 6.252C71.8929 6.13067 71.8695 6.05133 71.8695 6.014C71.8695 5.93 71.8975 5.86 71.9535 5.804C72.0095 5.748 72.0795 5.72 72.1635 5.72H72.8495C72.9989 5.72 73.1109 5.79933 73.1855 5.958L75.3135 11.054L77.4975 5.958C77.5722 5.79933 77.6889 5.72 77.8475 5.72H78.5055C78.5895 5.72 78.6595 5.748 78.7155 5.804C78.7715 5.86 78.7995 5.92533 78.7995 6C78.7995 6.028 78.7762 6.112 78.7295 6.252L74.7535 15.422C74.6789 15.5807 74.5622 15.66 74.4035 15.66H73.7455ZM85.5492 13C85.4559 13 85.3765 12.972 85.3112 12.916C85.2552 12.8507 85.2272 12.7713 85.2272 12.678V4.446H82.5392C82.4459 4.446 82.3665 4.418 82.3012 4.362C82.2452 4.29667 82.2172 4.21733 82.2172 4.124V3.536C82.2172 3.44267 82.2452 3.36333 82.3012 3.298C82.3665 3.23267 82.4459 3.2 82.5392 3.2H89.2872C89.3899 3.2 89.4692 3.23267 89.5252 3.298C89.5905 3.354 89.6232 3.43333 89.6232 3.536V4.124C89.6232 4.21733 89.5905 4.29667 89.5252 4.362C89.4599 4.418 89.3805 4.446 89.2872 4.446H86.6132V12.678C86.6132 12.7713 86.5805 12.8507 86.5152 12.916C86.4499 12.972 86.3705 13 86.2772 13H85.5492ZM92.5828 13.14C91.6214 13.14 90.8514 12.846 90.2728 12.258C89.7034 11.6607 89.3908 10.8487 89.3348 9.822L89.3208 9.346L89.3348 8.884C89.4001 7.876 89.7174 7.07333 90.2868 6.476C90.8654 5.87867 91.6261 5.58 92.5688 5.58C93.6048 5.58 94.4074 5.91133 94.9768 6.574C95.5461 7.22733 95.8308 8.114 95.8308 9.234V9.472C95.8308 9.56533 95.7981 9.64467 95.7328 9.71C95.6768 9.766 95.6021 9.794 95.5088 9.794H90.6648V9.92C90.6928 10.5267 90.8748 11.0447 91.2108 11.474C91.5561 11.894 92.0088 12.104 92.5688 12.104C92.9981 12.104 93.3481 12.02 93.6188 11.852C93.8988 11.6747 94.1041 11.4927 94.2348 11.306C94.3188 11.194 94.3794 11.1287 94.4168 11.11C94.4634 11.082 94.5428 11.068 94.6548 11.068H95.3408C95.4248 11.068 95.4948 11.0913 95.5508 11.138C95.6068 11.1847 95.6348 11.25 95.6348 11.334C95.6348 11.5393 95.5041 11.7867 95.2428 12.076C94.9908 12.3653 94.6314 12.6173 94.1648 12.832C93.7074 13.0373 93.1801 13.14 92.5828 13.14ZM94.5008 8.828V8.786C94.5008 8.142 94.3234 7.61933 93.9688 7.218C93.6234 6.80733 93.1568 6.602 92.5688 6.602C91.9808 6.602 91.5141 6.80733 91.1688 7.218C90.8328 7.61933 90.6648 8.142 90.6648 8.786V8.828H94.5008ZM97.8268 13C97.7334 13 97.6541 12.972 97.5888 12.916C97.5328 12.8507 97.5048 12.7713 97.5048 12.678V6.056C97.5048 5.96267 97.5328 5.88333 97.5888 5.818C97.6541 5.75267 97.7334 5.72 97.8268 5.72H98.4708C98.5641 5.72 98.6434 5.75267 98.7088 5.818C98.7741 5.88333 98.8068 5.96267 98.8068 6.056V6.672C99.1894 6.03733 99.8428 5.72 100.767 5.72H101.313C101.406 5.72 101.481 5.75267 101.537 5.818C101.602 5.874 101.635 5.94867 101.635 6.042V6.616C101.635 6.70933 101.602 6.784 101.537 6.84C101.481 6.896 101.406 6.924 101.313 6.924H100.473C99.9688 6.924 99.5721 7.07333 99.2828 7.372C98.9934 7.66133 98.8488 8.058 98.8488 8.562V12.678C98.8488 12.7713 98.8161 12.8507 98.7508 12.916C98.6854 12.972 98.6061 13 98.5128 13H97.8268ZM103.145 13C103.052 13 102.972 12.972 102.907 12.916C102.851 12.8507 102.823 12.7713 102.823 12.678V6.042C102.823 5.94867 102.851 5.874 102.907 5.818C102.972 5.75267 103.052 5.72 103.145 5.72H103.775C103.868 5.72 103.943 5.75267 103.999 5.818C104.064 5.874 104.097 5.94867 104.097 6.042V6.532C104.582 5.89733 105.259 5.58 106.127 5.58C107.163 5.58 107.896 6.00933 108.325 6.868C108.549 6.476 108.866 6.16333 109.277 5.93C109.688 5.69667 110.15 5.58 110.663 5.58C111.428 5.58 112.054 5.84133 112.539 6.364C113.024 6.88667 113.267 7.64267 113.267 8.632V12.678C113.267 12.7713 113.234 12.8507 113.169 12.916C113.113 12.972 113.038 13 112.945 13H112.287C112.194 13 112.114 12.972 112.049 12.916C111.993 12.8507 111.965 12.7713 111.965 12.678V8.758C111.965 8.03 111.811 7.50733 111.503 7.19C111.204 6.87267 110.808 6.714 110.313 6.714C109.874 6.714 109.496 6.87733 109.179 7.204C108.862 7.52133 108.703 8.03933 108.703 8.758V12.678C108.703 12.7713 108.67 12.8507 108.605 12.916C108.549 12.972 108.474 13 108.381 13H107.723C107.63 13 107.55 12.972 107.485 12.916C107.429 12.8507 107.401 12.7713 107.401 12.678V8.758C107.401 8.03 107.242 7.50733 106.925 7.19C106.617 6.87267 106.225 6.714 105.749 6.714C105.31 6.714 104.932 6.87733 104.615 7.204C104.298 7.52133 104.139 8.03467 104.139 8.744V12.678C104.139 12.7713 104.106 12.8507 104.041 12.916C103.985 12.972 103.91 13 103.817 13H103.145ZM115.475 4.362C115.381 4.362 115.302 4.334 115.237 4.278C115.181 4.21267 115.153 4.13333 115.153 4.04V3.284C115.153 3.19067 115.181 3.11133 115.237 3.046C115.302 2.98067 115.381 2.948 115.475 2.948H116.357C116.45 2.948 116.529 2.98067 116.595 3.046C116.66 3.11133 116.693 3.19067 116.693 3.284V4.04C116.693 4.13333 116.66 4.21267 116.595 4.278C116.529 4.334 116.45 4.362 116.357 4.362H115.475ZM115.587 13C115.493 13 115.414 12.972 115.349 12.916C115.293 12.8507 115.265 12.7713 115.265 12.678V6.042C115.265 5.94867 115.293 5.874 115.349 5.818C115.414 5.75267 115.493 5.72 115.587 5.72H116.259C116.352 5.72 116.427 5.75267 116.483 5.818C116.548 5.874 116.581 5.94867 116.581 6.042V12.678C116.581 12.7713 116.548 12.8507 116.483 12.916C116.427 12.972 116.352 13 116.259 13H115.587ZM118.977 13C118.884 13 118.804 12.972 118.739 12.916C118.683 12.8507 118.655 12.7713 118.655 12.678V6.042C118.655 5.94867 118.683 5.874 118.739 5.818C118.804 5.75267 118.884 5.72 118.977 5.72H119.635C119.728 5.72 119.803 5.75267 119.859 5.818C119.924 5.874 119.957 5.94867 119.957 6.042V6.658C120.228 6.31267 120.545 6.04667 120.909 5.86C121.282 5.67333 121.744 5.58 122.295 5.58C123.191 5.58 123.886 5.86933 124.381 6.448C124.885 7.01733 125.137 7.778 125.137 8.73V12.678C125.137 12.7713 125.104 12.8507 125.039 12.916C124.983 12.972 124.908 13 124.815 13H124.115C124.022 13 123.942 12.972 123.877 12.916C123.821 12.8507 123.793 12.7713 123.793 12.678V8.8C123.793 8.13733 123.63 7.624 123.303 7.26C122.986 6.896 122.524 6.714 121.917 6.714C121.329 6.714 120.862 6.90067 120.517 7.274C120.172 7.638 119.999 8.14667 119.999 8.8V12.678C119.999 12.7713 119.966 12.8507 119.901 12.916C119.845 12.972 119.77 13 119.677 13H118.977ZM130.127 13.14C129.101 13.14 128.303 12.8507 127.733 12.272C127.173 11.6933 126.875 10.9233 126.837 9.962L126.823 9.36L126.837 8.758C126.875 7.806 127.178 7.04067 127.747 6.462C128.317 5.874 129.11 5.58 130.127 5.58C131.145 5.58 131.938 5.874 132.507 6.462C133.077 7.04067 133.38 7.806 133.417 8.758C133.427 8.86067 133.431 9.06133 133.431 9.36C133.431 9.65867 133.427 9.85933 133.417 9.962C133.38 10.9233 133.077 11.6933 132.507 12.272C131.947 12.8507 131.154 13.14 130.127 13.14ZM130.127 12.062C130.715 12.062 131.177 11.8753 131.513 11.502C131.859 11.1287 132.045 10.592 132.073 9.892C132.083 9.79867 132.087 9.62133 132.087 9.36C132.087 9.09867 132.083 8.92133 132.073 8.828C132.045 8.128 131.859 7.59133 131.513 7.218C131.177 6.84467 130.715 6.658 130.127 6.658C129.539 6.658 129.073 6.84467 128.727 7.218C128.382 7.59133 128.2 8.128 128.181 8.828L128.167 9.36L128.181 9.892C128.2 10.592 128.382 11.1287 128.727 11.502C129.073 11.8753 129.539 12.062 130.127 12.062ZM137.704 13.14C137.051 13.14 136.5 13.0373 136.052 12.832C135.614 12.6173 135.282 12.3747 135.058 12.104C134.844 11.8333 134.736 11.6093 134.736 11.432C134.736 11.3387 134.769 11.2687 134.834 11.222C134.909 11.166 134.984 11.138 135.058 11.138H135.688C135.782 11.138 135.866 11.1847 135.94 11.278C136.164 11.5393 136.407 11.7447 136.668 11.894C136.93 12.0433 137.28 12.118 137.718 12.118C138.204 12.118 138.596 12.0247 138.894 11.838C139.202 11.642 139.356 11.376 139.356 11.04C139.356 10.816 139.291 10.634 139.16 10.494C139.039 10.3447 138.824 10.2187 138.516 10.116C138.218 10.004 137.77 9.88267 137.172 9.752C136.36 9.57467 135.782 9.318 135.436 8.982C135.1 8.646 134.932 8.212 134.932 7.68C134.932 7.32533 135.035 6.98933 135.24 6.672C135.455 6.34533 135.763 6.084 136.164 5.888C136.575 5.68267 137.065 5.58 137.634 5.58C138.232 5.58 138.74 5.678 139.16 5.874C139.58 6.07 139.893 6.30333 140.098 6.574C140.313 6.83533 140.42 7.05467 140.42 7.232C140.42 7.316 140.388 7.386 140.322 7.442C140.266 7.498 140.196 7.526 140.112 7.526H139.524C139.412 7.526 139.319 7.47933 139.244 7.386C139.095 7.20867 138.964 7.07333 138.852 6.98C138.75 6.87733 138.596 6.78867 138.39 6.714C138.194 6.63933 137.942 6.602 137.634 6.602C137.186 6.602 136.841 6.7 136.598 6.896C136.356 7.08267 136.234 7.33 136.234 7.638C136.234 7.834 136.286 8.002 136.388 8.142C136.491 8.27267 136.687 8.394 136.976 8.506C137.275 8.618 137.704 8.73467 138.264 8.856C139.151 9.04267 139.776 9.31333 140.14 9.668C140.514 10.0133 140.7 10.4567 140.7 10.998C140.7 11.3993 140.584 11.7633 140.35 12.09C140.117 12.4167 139.772 12.6733 139.314 12.86C138.866 13.0467 138.33 13.14 137.704 13.14Z" fill="white"/>
<path d="M467.102 18.18C465.494 18.18 464.27 17.748 463.43 16.884C462.602 16.02 462.158 14.826 462.098 13.302C462.086 12.978 462.08 12.45 462.08 11.718C462.08 10.974 462.086 10.434 462.098 10.098C462.158 8.586 462.608 7.398 463.448 6.534C464.288 5.658 465.506 5.22 467.102 5.22C468.17 5.22 469.076 5.412 469.82 5.796C470.564 6.168 471.128 6.66 471.512 7.272C471.896 7.884 472.106 8.538 472.142 9.234V9.27C472.142 9.366 472.1 9.45 472.016 9.522C471.944 9.582 471.86 9.612 471.764 9.612H470.774C470.534 9.612 470.384 9.474 470.324 9.198C470.12 8.298 469.754 7.668 469.226 7.308C468.698 6.936 467.99 6.75 467.102 6.75C465.038 6.75 463.97 7.896 463.898 10.188C463.886 10.512 463.88 11.01 463.88 11.682C463.88 12.354 463.886 12.864 463.898 13.212C463.97 15.504 465.038 16.65 467.102 16.65C467.99 16.65 468.698 16.47 469.226 16.11C469.766 15.738 470.132 15.102 470.324 14.202C470.36 14.046 470.414 13.938 470.486 13.878C470.558 13.818 470.654 13.788 470.774 13.788H471.764C471.872 13.788 471.962 13.824 472.034 13.896C472.118 13.956 472.154 14.04 472.142 14.148C472.106 14.856 471.896 15.516 471.512 16.128C471.128 16.74 470.564 17.238 469.82 17.622C469.076 17.994 468.17 18.18 467.102 18.18ZM478.154 18.18C476.834 18.18 475.808 17.808 475.076 17.064C474.356 16.32 473.972 15.33 473.924 14.094L473.906 13.32L473.924 12.546C473.972 11.322 474.362 10.338 475.094 9.594C475.826 8.838 476.846 8.46 478.154 8.46C479.462 8.46 480.482 8.838 481.214 9.594C481.946 10.338 482.336 11.322 482.384 12.546C482.396 12.678 482.402 12.936 482.402 13.32C482.402 13.704 482.396 13.962 482.384 14.094C482.336 15.33 481.946 16.32 481.214 17.064C480.494 17.808 479.474 18.18 478.154 18.18ZM478.154 16.794C478.91 16.794 479.504 16.554 479.936 16.074C480.38 15.594 480.62 14.904 480.656 14.004C480.668 13.884 480.674 13.656 480.674 13.32C480.674 12.984 480.668 12.756 480.656 12.636C480.62 11.736 480.38 11.046 479.936 10.566C479.504 10.086 478.91 9.846 478.154 9.846C477.398 9.846 476.798 10.086 476.354 10.566C475.91 11.046 475.676 11.736 475.652 12.636L475.634 13.32L475.652 14.004C475.676 14.904 475.91 15.594 476.354 16.074C476.798 16.554 477.398 16.794 478.154 16.794ZM485.088 21.42C484.968 21.42 484.866 21.378 484.782 21.294C484.71 21.222 484.674 21.126 484.674 21.006V9.054C484.674 8.934 484.71 8.838 484.782 8.766C484.866 8.682 484.968 8.64 485.088 8.64H485.916C486.036 8.64 486.132 8.682 486.204 8.766C486.288 8.838 486.33 8.934 486.33 9.054V9.846C487.002 8.922 487.986 8.46 489.282 8.46C490.542 8.46 491.484 8.856 492.108 9.648C492.744 10.44 493.086 11.46 493.134 12.708C493.146 12.84 493.152 13.044 493.152 13.32C493.152 13.596 493.146 13.8 493.134 13.932C493.086 15.168 492.744 16.188 492.108 16.992C491.472 17.784 490.53 18.18 489.282 18.18C488.034 18.18 487.062 17.73 486.366 16.83V21.006C486.366 21.126 486.33 21.222 486.258 21.294C486.186 21.378 486.09 21.42 485.97 21.42H485.088ZM488.904 16.722C489.756 16.722 490.374 16.458 490.758 15.93C491.154 15.402 491.37 14.706 491.406 13.842C491.418 13.722 491.424 13.548 491.424 13.32C491.424 11.052 490.584 9.918 488.904 9.918C488.076 9.918 487.452 10.194 487.032 10.746C486.624 11.286 486.402 11.934 486.366 12.69L486.348 13.374L486.366 14.076C486.39 14.784 486.618 15.402 487.05 15.93C487.482 16.458 488.1 16.722 488.904 16.722ZM496.665 21.42C496.569 21.42 496.485 21.384 496.413 21.312C496.341 21.24 496.305 21.156 496.305 21.06C496.305 20.976 496.335 20.868 496.395 20.736L497.781 17.442L494.343 9.324C494.283 9.168 494.253 9.066 494.253 9.018C494.253 8.91 494.289 8.82 494.361 8.748C494.433 8.676 494.523 8.64 494.631 8.64H495.513C495.705 8.64 495.849 8.742 495.945 8.946L498.681 15.498L501.489 8.946C501.585 8.742 501.735 8.64 501.939 8.64H502.785C502.893 8.64 502.983 8.676 503.055 8.748C503.127 8.82 503.163 8.904 503.163 9C503.163 9.036 503.133 9.144 503.073 9.324L497.961 21.114C497.865 21.318 497.715 21.42 497.511 21.42H496.665ZM505.373 18C505.253 18 505.151 17.964 505.067 17.892C504.995 17.808 504.959 17.706 504.959 17.586V9.072C504.959 8.952 504.995 8.85 505.067 8.766C505.151 8.682 505.253 8.64 505.373 8.64H506.201C506.321 8.64 506.423 8.682 506.507 8.766C506.591 8.85 506.633 8.952 506.633 9.072V9.864C507.125 9.048 507.965 8.64 509.153 8.64H509.855C509.975 8.64 510.071 8.682 510.143 8.766C510.227 8.838 510.269 8.934 510.269 9.054V9.792C510.269 9.912 510.227 10.008 510.143 10.08C510.071 10.152 509.975 10.188 509.855 10.188H508.775C508.127 10.188 507.617 10.38 507.245 10.764C506.873 11.136 506.687 11.646 506.687 12.294V17.586C506.687 17.706 506.645 17.808 506.561 17.892C506.477 17.964 506.375 18 506.255 18H505.373ZM512.067 6.894C511.947 6.894 511.845 6.858 511.761 6.786C511.689 6.702 511.653 6.6 511.653 6.48V5.508C511.653 5.388 511.689 5.286 511.761 5.202C511.845 5.118 511.947 5.076 512.067 5.076H513.201C513.321 5.076 513.423 5.118 513.507 5.202C513.591 5.286 513.633 5.388 513.633 5.508V6.48C513.633 6.6 513.591 6.702 513.507 6.786C513.423 6.858 513.321 6.894 513.201 6.894H512.067ZM512.211 18C512.091 18 511.989 17.964 511.905 17.892C511.833 17.808 511.797 17.706 511.797 17.586V9.054C511.797 8.934 511.833 8.838 511.905 8.766C511.989 8.682 512.091 8.64 512.211 8.64H513.075C513.195 8.64 513.291 8.682 513.363 8.766C513.447 8.838 513.489 8.934 513.489 9.054V17.586C513.489 17.706 513.447 17.808 513.363 17.892C513.291 17.964 513.195 18 513.075 18H512.211ZM519.99 21.96C519.006 21.96 518.214 21.792 517.614 21.456C517.014 21.132 516.588 20.76 516.336 20.34C516.084 19.92 515.946 19.542 515.922 19.206C515.91 19.086 515.946 18.984 516.03 18.9C516.126 18.816 516.228 18.774 516.336 18.774H517.2C517.308 18.774 517.398 18.798 517.47 18.846C517.542 18.906 517.602 19.008 517.65 19.152C517.794 19.536 518.028 19.866 518.352 20.142C518.688 20.43 519.204 20.574 519.9 20.574C520.788 20.574 521.442 20.382 521.862 19.998C522.282 19.626 522.492 18.96 522.492 18V16.776C522.18 17.172 521.784 17.49 521.304 17.73C520.824 17.958 520.254 18.072 519.594 18.072C518.322 18.072 517.368 17.67 516.732 16.866C516.108 16.05 515.778 15.018 515.742 13.77L515.724 13.266L515.742 12.78C515.778 11.544 516.114 10.518 516.75 9.702C517.386 8.874 518.334 8.46 519.594 8.46C520.854 8.46 521.838 8.922 522.546 9.846V9.072C522.546 8.952 522.582 8.85 522.654 8.766C522.738 8.682 522.84 8.64 522.96 8.64H523.788C523.908 8.64 524.01 8.682 524.094 8.766C524.178 8.85 524.22 8.952 524.22 9.072V17.802C524.22 20.574 522.81 21.96 519.99 21.96ZM519.954 16.632C520.77 16.632 521.388 16.362 521.808 15.822C522.228 15.282 522.456 14.64 522.492 13.896C522.504 13.788 522.51 13.578 522.51 13.266C522.51 12.966 522.504 12.762 522.492 12.654C522.456 11.91 522.228 11.268 521.808 10.728C521.4 10.188 520.782 9.918 519.954 9.918C519.102 9.918 518.484 10.182 518.1 10.71C517.716 11.238 517.506 11.934 517.47 12.798L517.452 13.266L517.47 13.752C517.506 14.604 517.716 15.3 518.1 15.84C518.484 16.368 519.102 16.632 519.954 16.632ZM527.328 18C527.208 18 527.106 17.964 527.022 17.892C526.95 17.808 526.914 17.706 526.914 17.586V5.634C526.914 5.514 526.95 5.418 527.022 5.346C527.106 5.262 527.208 5.22 527.328 5.22H528.228C528.348 5.22 528.444 5.262 528.516 5.346C528.6 5.418 528.642 5.514 528.642 5.634V9.828C528.99 9.384 529.398 9.048 529.866 8.82C530.334 8.58 530.916 8.46 531.612 8.46C532.764 8.46 533.658 8.832 534.294 9.576C534.942 10.308 535.266 11.286 535.266 12.51V17.586C535.266 17.706 535.224 17.808 535.14 17.892C535.068 17.964 534.972 18 534.852 18H533.952C533.832 18 533.73 17.964 533.646 17.892C533.574 17.808 533.538 17.706 533.538 17.586V12.6C533.538 11.748 533.328 11.088 532.908 10.62C532.5 10.152 531.906 9.918 531.126 9.918C530.37 9.918 529.764 10.158 529.308 10.638C528.864 11.106 528.642 11.76 528.642 12.6V17.586C528.642 17.706 528.6 17.808 528.516 17.892C528.444 17.964 528.348 18 528.228 18H527.328ZM541.396 18C539.5 18 538.552 16.944 538.552 14.832V10.08H537.148C537.028 10.08 536.926 10.044 536.842 9.972C536.77 9.888 536.734 9.786 536.734 9.666V9.054C536.734 8.934 536.77 8.838 536.842 8.766C536.926 8.682 537.028 8.64 537.148 8.64H538.552V5.634C538.552 5.514 538.588 5.418 538.66 5.346C538.744 5.262 538.846 5.22 538.966 5.22H539.812C539.932 5.22 540.028 5.262 540.1 5.346C540.184 5.418 540.226 5.514 540.226 5.634V8.64H542.458C542.578 8.64 542.674 8.682 542.746 8.766C542.83 8.838 542.872 8.934 542.872 9.054V9.666C542.872 9.786 542.83 9.888 542.746 9.972C542.674 10.044 542.578 10.08 542.458 10.08H540.226V14.706C540.226 15.306 540.328 15.762 540.532 16.074C540.736 16.374 541.072 16.524 541.54 16.524H542.638C542.758 16.524 542.854 16.566 542.926 16.65C543.01 16.722 543.052 16.818 543.052 16.938V17.586C543.052 17.706 543.01 17.808 542.926 17.892C542.854 17.964 542.758 18 542.638 18H541.396ZM555.288 18.18C554.112 18.18 553.026 17.892 552.03 17.316C551.046 16.728 550.26 15.942 549.672 14.958C549.096 13.962 548.808 12.876 548.808 11.7C548.808 10.524 549.096 9.444 549.672 8.46C550.26 7.464 551.046 6.678 552.03 6.102C553.026 5.514 554.112 5.22 555.288 5.22C556.464 5.22 557.544 5.514 558.528 6.102C559.524 6.678 560.31 7.464 560.886 8.46C561.474 9.444 561.768 10.524 561.768 11.7C561.768 12.876 561.474 13.962 560.886 14.958C560.31 15.942 559.524 16.728 558.528 17.316C557.544 17.892 556.464 18.18 555.288 18.18ZM555.288 17.046C556.248 17.046 557.13 16.806 557.934 16.326C558.738 15.834 559.374 15.18 559.842 14.364C560.322 13.548 560.562 12.66 560.562 11.7C560.562 10.74 560.322 9.852 559.842 9.036C559.374 8.208 558.732 7.554 557.916 7.074C557.112 6.582 556.236 6.336 555.288 6.336C554.34 6.336 553.458 6.582 552.642 7.074C551.838 7.554 551.202 8.208 550.734 9.036C550.266 9.852 550.032 10.74 550.032 11.7C550.032 12.66 550.266 13.548 550.734 14.364C551.202 15.18 551.838 15.834 552.642 16.326C553.458 16.806 554.34 17.046 555.288 17.046ZM555.288 15.156C554.4 15.156 553.692 14.886 553.164 14.346C552.636 13.806 552.36 13.128 552.336 12.312L552.318 11.682L552.336 11.052C552.36 10.236 552.636 9.558 553.164 9.018C553.692 8.478 554.4 8.208 555.288 8.208C555.912 8.208 556.44 8.31 556.872 8.514C557.316 8.718 557.646 8.976 557.862 9.288C558.09 9.588 558.21 9.894 558.222 10.206C558.222 10.326 558.186 10.422 558.114 10.494C558.042 10.566 557.946 10.602 557.826 10.602H557.25C557.13 10.602 557.04 10.572 556.98 10.512C556.92 10.452 556.866 10.368 556.818 10.26C556.71 9.984 556.536 9.774 556.296 9.63C556.056 9.486 555.72 9.414 555.288 9.414C554.712 9.414 554.304 9.576 554.064 9.9C553.836 10.224 553.71 10.614 553.686 11.07L553.668 11.682L553.686 12.294C553.71 12.75 553.836 13.14 554.064 13.464C554.304 13.788 554.712 13.95 555.288 13.95C555.72 13.95 556.056 13.878 556.296 13.734C556.536 13.59 556.71 13.38 556.818 13.104C556.866 12.996 556.92 12.912 556.98 12.852C557.04 12.792 557.13 12.762 557.25 12.762H557.826C557.946 12.762 558.042 12.798 558.114 12.87C558.186 12.942 558.222 13.038 558.222 13.158C558.21 13.47 558.09 13.782 557.862 14.094C557.646 14.394 557.316 14.646 556.872 14.85C556.44 15.054 555.912 15.156 555.288 15.156ZM568.433 18C568.313 18 568.211 17.964 568.127 17.892C568.055 17.808 568.019 17.706 568.019 17.586V17.01C568.019 16.734 568.169 16.47 568.469 16.218L572.285 12.402C573.209 11.634 573.845 11.01 574.193 10.53C574.541 10.038 574.715 9.522 574.715 8.982C574.715 8.286 574.517 7.74 574.121 7.344C573.737 6.948 573.173 6.75 572.429 6.75C571.733 6.75 571.175 6.96 570.755 7.38C570.335 7.788 570.077 8.334 569.981 9.018C569.957 9.162 569.897 9.27 569.801 9.342C569.717 9.402 569.621 9.432 569.513 9.432H568.577C568.469 9.432 568.379 9.402 568.307 9.342C568.235 9.27 568.199 9.186 568.199 9.09C568.223 8.442 568.397 7.824 568.721 7.236C569.045 6.636 569.519 6.15 570.143 5.778C570.779 5.394 571.541 5.202 572.429 5.202C573.785 5.202 574.805 5.556 575.489 6.264C576.185 6.96 576.533 7.848 576.533 8.928C576.533 9.684 576.341 10.368 575.957 10.98C575.585 11.58 575.003 12.228 574.211 12.924L570.755 16.434H576.371C576.503 16.434 576.605 16.476 576.677 16.56C576.761 16.632 576.803 16.728 576.803 16.848V17.586C576.803 17.706 576.761 17.808 576.677 17.892C576.593 17.964 576.491 18 576.371 18H568.433ZM583.407 18.18C581.859 18.18 580.725 17.73 580.005 16.83C579.285 15.93 578.901 14.748 578.853 13.284C578.841 12.96 578.835 12.438 578.835 11.718C578.835 10.974 578.841 10.434 578.853 10.098C578.889 8.658 579.273 7.488 580.005 6.588C580.737 5.676 581.871 5.22 583.407 5.22C584.955 5.22 586.095 5.676 586.827 6.588C587.559 7.488 587.943 8.658 587.979 10.098C588.003 10.77 588.015 11.31 588.015 11.718C588.015 12.114 588.003 12.636 587.979 13.284C587.931 14.748 587.547 15.93 586.827 16.83C586.107 17.73 584.967 18.18 583.407 18.18ZM583.407 16.632C584.307 16.632 584.985 16.332 585.441 15.732C585.909 15.132 586.155 14.286 586.179 13.194C586.203 12.498 586.215 11.994 586.215 11.682C586.215 11.346 586.203 10.854 586.179 10.206C586.155 9.126 585.915 8.28 585.459 7.668C585.003 7.056 584.319 6.75 583.407 6.75C582.507 6.75 581.823 7.056 581.355 7.668C580.899 8.28 580.659 9.126 580.635 10.206L580.617 11.682L580.635 13.194C580.659 14.286 580.899 15.132 581.355 15.732C581.823 16.332 582.507 16.632 583.407 16.632ZM590.423 18C590.303 18 590.201 17.964 590.117 17.892C590.045 17.808 590.009 17.706 590.009 17.586V17.01C590.009 16.734 590.159 16.47 590.459 16.218L594.275 12.402C595.199 11.634 595.835 11.01 596.183 10.53C596.531 10.038 596.705 9.522 596.705 8.982C596.705 8.286 596.507 7.74 596.111 7.344C595.727 6.948 595.163 6.75 594.419 6.75C593.723 6.75 593.165 6.96 592.745 7.38C592.325 7.788 592.067 8.334 591.971 9.018C591.947 9.162 591.887 9.27 591.791 9.342C591.707 9.402 591.611 9.432 591.503 9.432H590.567C590.459 9.432 590.369 9.402 590.297 9.342C590.225 9.27 590.189 9.186 590.189 9.09C590.213 8.442 590.387 7.824 590.711 7.236C591.035 6.636 591.509 6.15 592.133 5.778C592.769 5.394 593.531 5.202 594.419 5.202C595.775 5.202 596.795 5.556 597.479 6.264C598.175 6.96 598.523 7.848 598.523 8.928C598.523 9.684 598.331 10.368 597.947 10.98C597.575 11.58 596.993 12.228 596.201 12.924L592.745 16.434H598.361C598.493 16.434 598.595 16.476 598.667 16.56C598.751 16.632 598.793 16.728 598.793 16.848V17.586C598.793 17.706 598.751 17.808 598.667 17.892C598.583 17.964 598.481 18 598.361 18H590.423ZM604.659 18C604.539 18 604.437 17.964 604.353 17.892C604.281 17.808 604.245 17.706 604.245 17.586V7.506L601.257 9.81C601.173 9.882 601.083 9.918 600.987 9.918C600.879 9.918 600.777 9.858 600.681 9.738L600.213 9.144C600.153 9.06 600.123 8.976 600.123 8.892C600.123 8.748 600.183 8.634 600.303 8.55L604.227 5.526C604.359 5.442 604.515 5.4 604.695 5.4H605.613C605.733 5.4 605.829 5.442 605.901 5.526C605.985 5.598 606.027 5.694 606.027 5.814V17.586C606.027 17.706 605.985 17.808 605.901 17.892C605.829 17.964 605.733 18 605.613 18H604.659ZM621.291 18.18C620.055 18.18 619.065 17.802 618.321 17.046C617.589 16.278 617.187 15.234 617.115 13.914L617.097 13.302L617.115 12.708C617.199 11.412 617.607 10.38 618.339 9.612C619.083 8.844 620.061 8.46 621.273 8.46C622.605 8.46 623.637 8.886 624.369 9.738C625.101 10.578 625.467 11.718 625.467 13.158V13.464C625.467 13.584 625.425 13.686 625.341 13.77C625.269 13.842 625.173 13.878 625.053 13.878H618.825V14.04C618.861 14.82 619.095 15.486 619.527 16.038C619.971 16.578 620.553 16.848 621.273 16.848C621.825 16.848 622.275 16.74 622.623 16.524C622.983 16.296 623.247 16.062 623.415 15.822C623.523 15.678 623.601 15.594 623.649 15.57C623.709 15.534 623.811 15.516 623.955 15.516H624.837C624.945 15.516 625.035 15.546 625.107 15.606C625.179 15.666 625.215 15.75 625.215 15.858C625.215 16.122 625.047 16.44 624.711 16.812C624.387 17.184 623.925 17.508 623.325 17.784C622.737 18.048 622.059 18.18 621.291 18.18ZM623.757 12.636V12.582C623.757 11.754 623.529 11.082 623.073 10.566C622.629 10.038 622.029 9.774 621.273 9.774C620.517 9.774 619.917 10.038 619.473 10.566C619.041 11.082 618.825 11.754 618.825 12.582V12.636H623.757ZM628.033 18C627.913 18 627.811 17.964 627.727 17.892C627.655 17.808 627.619 17.706 627.619 17.586V9.054C627.619 8.934 627.655 8.838 627.727 8.766C627.811 8.682 627.913 8.64 628.033 8.64H628.843C628.963 8.64 629.059 8.682 629.131 8.766C629.215 8.838 629.257 8.934 629.257 9.054V9.684C629.881 8.868 630.751 8.46 631.867 8.46C633.199 8.46 634.141 9.012 634.693 10.116C634.981 9.612 635.389 9.21 635.917 8.91C636.445 8.61 637.039 8.46 637.699 8.46C638.683 8.46 639.487 8.796 640.111 9.468C640.735 10.14 641.047 11.112 641.047 12.384V17.586C641.047 17.706 641.005 17.808 640.921 17.892C640.849 17.964 640.753 18 640.633 18H639.787C639.667 18 639.565 17.964 639.481 17.892C639.409 17.808 639.373 17.706 639.373 17.586V12.546C639.373 11.61 639.175 10.938 638.779 10.53C638.395 10.122 637.885 9.918 637.249 9.918C636.685 9.918 636.199 10.128 635.791 10.548C635.383 10.956 635.179 11.622 635.179 12.546V17.586C635.179 17.706 635.137 17.808 635.053 17.892C634.981 17.964 634.885 18 634.765 18H633.919C633.799 18 633.697 17.964 633.613 17.892C633.541 17.808 633.505 17.706 633.505 17.586V12.546C633.505 11.61 633.301 10.938 632.893 10.53C632.497 10.122 631.993 9.918 631.381 9.918C630.817 9.918 630.331 10.128 629.923 10.548C629.515 10.956 629.311 11.616 629.311 12.528V17.586C629.311 17.706 629.269 17.808 629.185 17.892C629.113 17.964 629.017 18 628.897 18H628.033ZM646.135 18C646.015 18 645.913 17.964 645.829 17.892C645.757 17.808 645.721 17.706 645.721 17.586V13.338L641.383 5.994C641.383 5.97 641.377 5.934 641.365 5.886C641.341 5.838 641.329 5.796 641.329 5.76C641.329 5.664 641.365 5.58 641.437 5.508C641.509 5.436 641.593 5.4 641.689 5.4H642.625C642.829 5.4 642.985 5.502 643.093 5.706L646.603 11.538L650.113 5.706C650.245 5.502 650.407 5.4 650.599 5.4H651.517C651.625 5.4 651.715 5.436 651.787 5.508C651.859 5.58 651.895 5.664 651.895 5.76C651.895 5.82 651.871 5.898 651.823 5.994L647.503 13.338V17.586C647.503 17.706 647.461 17.808 647.377 17.892C647.293 17.964 647.191 18 647.071 18H646.135ZM656.008 18.18C654.772 18.18 653.782 17.802 653.038 17.046C652.306 16.278 651.904 15.234 651.832 13.914L651.814 13.302L651.832 12.708C651.916 11.412 652.324 10.38 653.056 9.612C653.8 8.844 654.778 8.46 655.99 8.46C657.322 8.46 658.354 8.886 659.086 9.738C659.818 10.578 660.184 11.718 660.184 13.158V13.464C660.184 13.584 660.142 13.686 660.058 13.77C659.986 13.842 659.89 13.878 659.77 13.878H653.542V14.04C653.578 14.82 653.812 15.486 654.244 16.038C654.688 16.578 655.27 16.848 655.99 16.848C656.542 16.848 656.992 16.74 657.34 16.524C657.7 16.296 657.964 16.062 658.132 15.822C658.24 15.678 658.318 15.594 658.366 15.57C658.426 15.534 658.528 15.516 658.672 15.516H659.554C659.662 15.516 659.752 15.546 659.824 15.606C659.896 15.666 659.932 15.75 659.932 15.858C659.932 16.122 659.764 16.44 659.428 16.812C659.104 17.184 658.642 17.508 658.042 17.784C657.454 18.048 656.776 18.18 656.008 18.18ZM658.474 12.636V12.582C658.474 11.754 658.246 11.082 657.79 10.566C657.346 10.038 656.746 9.774 655.99 9.774C655.234 9.774 654.634 10.038 654.19 10.566C653.758 11.082 653.542 11.754 653.542 12.582V12.636H658.474ZM662.75 18C662.63 18 662.528 17.964 662.444 17.892C662.372 17.808 662.336 17.706 662.336 17.586V9.054C662.336 8.934 662.372 8.838 662.444 8.766C662.528 8.682 662.63 8.64 662.75 8.64H663.56C663.68 8.64 663.776 8.682 663.848 8.766C663.932 8.838 663.974 8.934 663.974 9.054V9.684C664.598 8.868 665.468 8.46 666.584 8.46C667.916 8.46 668.858 9.012 669.41 10.116C669.698 9.612 670.106 9.21 670.634 8.91C671.162 8.61 671.756 8.46 672.416 8.46C673.4 8.46 674.204 8.796 674.828 9.468C675.452 10.14 675.764 11.112 675.764 12.384V17.586C675.764 17.706 675.722 17.808 675.638 17.892C675.566 17.964 675.47 18 675.35 18H674.504C674.384 18 674.282 17.964 674.198 17.892C674.126 17.808 674.09 17.706 674.09 17.586V12.546C674.09 11.61 673.892 10.938 673.496 10.53C673.112 10.122 672.602 9.918 671.966 9.918C671.402 9.918 670.916 10.128 670.508 10.548C670.1 10.956 669.896 11.622 669.896 12.546V17.586C669.896 17.706 669.854 17.808 669.77 17.892C669.698 17.964 669.602 18 669.482 18H668.636C668.516 18 668.414 17.964 668.33 17.892C668.258 17.808 668.222 17.706 668.222 17.586V12.546C668.222 11.61 668.018 10.938 667.61 10.53C667.214 10.122 666.71 9.918 666.098 9.918C665.534 9.918 665.048 10.128 664.64 10.548C664.232 10.956 664.028 11.616 664.028 12.528V17.586C664.028 17.706 663.986 17.808 663.902 17.892C663.83 17.964 663.734 18 663.614 18H662.75Z" fill="white"/>
<path d="M1105.96 7.85352L1105.6 9.33222C1106.01 9.43644 1107.3 9.8616 1107.51 9.02478C1107.73 8.15232 1106.38 7.95774 1105.96 7.85352Z" fill="white"/>
<path d="M1105.41 10.0786L1105 11.7091C1105.51 11.8338 1107.05 12.3309 1107.28 11.4112C1107.52 10.4521 1105.91 10.2039 1105.41 10.0786Z" fill="white"/>
<path d="M1107.63 3.45177C1104.02 2.55015 1100.35 4.75119 1099.45 8.36775C1098.55 11.9838 1100.75 15.6466 1104.37 16.5482C1107.98 17.4498 1111.65 15.2491 1112.55 11.6329C1113.45 8.01657 1111.25 4.35321 1107.63 3.45177ZM1108.98 9.03843C1108.88 9.69597 1108.51 10.0144 1108.03 10.1258C1108.69 10.4716 1109.03 11.0022 1108.71 11.922C1108.31 13.0641 1107.36 13.1606 1106.1 12.9216L1105.79 14.1499L1105.05 13.9654L1105.35 12.7534C1105.16 12.7046 1104.96 12.6536 1104.76 12.6004L1104.46 13.818L1103.72 13.6333L1104.03 12.4028C1103.85 12.3585 1103.68 12.3114 1103.5 12.2665L1102.53 12.0261L1102.9 11.1784C1102.9 11.1784 1103.45 11.3237 1103.44 11.3129C1103.65 11.3649 1103.74 11.2281 1103.78 11.1369L1104.26 9.19521C1104.29 9.20187 1104.32 9.20835 1104.34 9.21465C1104.32 9.20479 1104.29 9.19656 1104.27 9.18999L1104.61 7.80381C1104.62 7.64649 1104.57 7.44813 1104.27 7.37325C1104.28 7.36533 1103.73 7.23951 1103.73 7.23951L1103.92 6.44841L1104.95 6.70347L1104.95 6.70725C1105.1 6.74541 1105.26 6.78159 1105.42 6.81831L1105.72 5.60205L1106.46 5.78655L1106.16 6.97905C1106.36 7.02441 1106.56 7.07013 1106.76 7.11855L1107.05 5.93397L1107.79 6.11847L1107.49 7.33527C1108.43 7.65729 1109.11 8.14005 1108.98 9.03843Z" fill="white"/>
<path d="M1055.52 3.52002H1044.48C1043.95 3.52002 1043.52 3.93852 1043.52 4.45386V15.5449C1043.52 16.061 1043.95 16.48 1044.48 16.48H1055.52C1056.05 16.48 1056.48 16.061 1056.48 15.5449V4.45386C1056.48 3.93852 1056.05 3.52002 1055.52 3.52002ZM1047.36 14.5637H1045.44V8.37912H1047.36V14.5637ZM1046.4 7.53348C1046.26 7.53348 1046.11 7.50464 1045.98 7.4486C1045.84 7.39256 1045.72 7.31042 1045.61 7.20688C1045.51 7.10334 1045.43 6.98043 1045.37 6.84517C1045.32 6.7099 1045.29 6.56494 1045.29 6.41856C1045.29 6.12308 1045.41 5.8397 1045.61 5.63076C1045.82 5.42183 1046.11 5.30445 1046.4 5.30445C1046.7 5.30445 1046.98 5.42183 1047.19 5.63076C1047.4 5.8397 1047.52 6.12308 1047.52 6.41856C1047.52 6.7141 1047.4 6.99755 1047.19 7.20661C1046.98 7.41567 1046.7 7.53324 1046.4 7.53348ZM1054.56 14.5637H1052.64V11.5563C1052.64 10.8388 1052.63 9.91632 1051.64 9.91632C1050.64 9.91632 1050.49 10.6977 1050.49 11.5043V14.5639H1048.57V8.37912H1050.41V9.22368H1050.44C1050.7 8.73768 1051.32 8.22486 1052.26 8.22486C1054.2 8.22486 1054.56 9.50538 1054.56 11.1713V14.5637H1054.56Z" fill="white"/>
<path d="M1021.13 13.6705C1021.01 13.8476 1020.89 13.9349 1020.78 13.9349C1020.7 13.9349 1020.66 13.8906 1020.64 13.8028C1020.64 13.7846 1020.64 13.7157 1020.64 13.5832V11.2864H1020.07V13.7531C1020.07 13.9736 1020.09 14.1223 1020.12 14.2168C1020.18 14.3748 1020.31 14.4488 1020.49 14.4488C1020.7 14.4488 1020.91 14.3233 1021.13 14.0656V14.406H1021.7V11.2866H1021.13V13.6705Z" fill="white"/>
<path d="M1018.02 10.8086H1018.69V14.4058H1019.31V10.8086H1019.99V10.2192H1018.02V10.8086Z" fill="white"/>
<path d="M1021.87 8.08112C1022.05 8.08112 1022.14 7.93532 1022.14 7.64354V6.3173C1022.14 6.02588 1022.05 5.88062 1021.87 5.88062C1021.69 5.88062 1021.6 6.02588 1021.6 6.3173V7.64354C1021.6 7.93514 1021.69 8.08112 1021.87 8.08112Z" fill="white"/>
<path d="M1023.34 11.2483C1023.13 11.2483 1022.94 11.3621 1022.75 11.5867V10.2192H1022.19V14.4059H1022.75V14.1031C1022.94 14.3369 1023.14 14.4487 1023.34 14.4487C1023.56 14.4487 1023.71 14.3303 1023.79 14.0982C1023.83 13.9659 1023.85 13.7582 1023.85 13.4697V12.2275C1023.85 11.9323 1023.83 11.726 1023.79 11.6006C1023.71 11.3667 1023.56 11.2483 1023.34 11.2483ZM1023.28 13.514C1023.28 13.7957 1023.2 13.9346 1023.04 13.9346C1022.94 13.9346 1022.85 13.8903 1022.75 13.7958V11.8943C1022.85 11.8013 1022.94 11.757 1023.04 11.757C1023.2 11.757 1023.28 11.9013 1023.28 12.1827V13.514Z" fill="white"/>
<path d="M1025.14 11.2483C1024.85 11.2483 1024.62 11.3547 1024.46 11.5683C1024.34 11.7258 1024.29 11.9696 1024.29 12.3027V13.3957C1024.29 13.7269 1024.35 13.9733 1024.47 14.129C1024.63 14.342 1024.86 14.4485 1025.15 14.4485C1025.45 14.4485 1025.68 14.3367 1025.84 14.1107C1025.91 14.0091 1025.95 13.8932 1025.97 13.7717C1025.97 13.715 1025.98 13.5894 1025.98 13.4076V13.3248H1025.4C1025.4 13.5516 1025.4 13.677 1025.39 13.7078C1025.36 13.8588 1025.28 13.9344 1025.14 13.9344C1024.94 13.9344 1024.85 13.7904 1024.85 13.5017V12.9488H1025.98V12.3026C1025.98 11.9692 1025.92 11.7257 1025.81 11.5682C1025.65 11.3545 1025.42 11.2483 1025.14 11.2483ZM1025.41 12.4784H1024.85V12.1899C1024.85 11.9015 1024.94 11.7572 1025.13 11.7572C1025.32 11.7572 1025.41 11.9015 1025.41 12.1899V12.4784Z" fill="white"/>
<path d="M1027.22 3.52002H1016.78C1016.09 3.52002 1015.52 4.08702 1015.52 4.78002V15.22C1015.52 15.913 1016.09 16.48 1016.78 16.48H1027.22C1027.91 16.48 1028.48 15.913 1028.48 15.22V4.78002C1028.48 4.08702 1027.91 3.52002 1027.22 3.52002ZM1023.18 5.40462H1023.75V7.72518C1023.75 7.85946 1023.75 7.92912 1023.76 7.94748C1023.77 8.03604 1023.82 8.08122 1023.89 8.08122C1024.01 8.08122 1024.13 7.99266 1024.26 7.81374V5.40462H1024.83V8.55642H1024.26V8.21262C1024.03 8.47344 1023.81 8.60016 1023.6 8.60016C1023.42 8.60016 1023.29 8.52546 1023.23 8.36562C1023.2 8.2704 1023.18 8.11938 1023.18 7.8969V5.40462ZM1021.03 6.43206C1021.03 6.09528 1021.08 5.84886 1021.21 5.68956C1021.36 5.47428 1021.59 5.36646 1021.87 5.36646C1022.16 5.36646 1022.38 5.47428 1022.54 5.68956C1022.66 5.84886 1022.71 6.09528 1022.71 6.43206V7.53636C1022.71 7.87116 1022.66 8.11956 1022.54 8.27778C1022.38 8.49252 1022.16 8.60034 1021.87 8.60034C1021.59 8.60034 1021.36 8.49252 1021.21 8.27778C1021.08 8.11956 1021.03 7.87116 1021.03 7.53636V6.43206ZM1019.5 4.32678L1019.95 5.98764L1020.38 4.32678H1021.02L1020.26 6.84354V8.55642H1019.63V6.84354C1019.57 6.5397 1019.44 6.0951 1019.24 5.50524C1019.11 5.11284 1018.97 4.71864 1018.83 4.32678H1019.5ZM1026.51 14.5933C1026.4 15.0906 1025.99 15.4574 1025.5 15.512C1024.34 15.6416 1023.17 15.6423 1022 15.6416C1020.83 15.6423 1019.66 15.6416 1018.5 15.512C1018.01 15.4573 1017.6 15.0904 1017.49 14.5933C1017.32 13.8848 1017.32 13.1115 1017.32 12.3825C1017.32 11.6528 1017.33 10.88 1017.49 10.1714C1017.6 9.67422 1018.01 9.30756 1018.5 9.25284C1019.66 9.12288 1020.83 9.12252 1022 9.12288C1023.17 9.12252 1024.34 9.12288 1025.5 9.25284C1025.99 9.30756 1026.4 9.67422 1026.51 10.1714C1026.68 10.8802 1026.68 11.6528 1026.68 12.3825C1026.68 13.1115 1026.68 13.8848 1026.51 14.5933Z" fill="white"/>
<path d="M1083.76 3.52002H1072.24C1072.05 3.52002 1071.86 3.59538 1071.73 3.72953C1071.6 3.86368 1071.52 4.04563 1071.52 4.23534V15.7649C1071.52 15.9546 1071.6 16.1365 1071.73 16.2706C1071.86 16.4047 1072.05 16.48 1072.24 16.48H1078.44V11.4613H1076.75V9.50538H1078.44V8.06286C1078.44 6.38886 1079.46 5.47752 1080.96 5.47752C1081.67 5.47752 1082.29 5.53062 1082.47 5.55456V7.30398L1081.43 7.30452C1080.62 7.30452 1080.46 7.69044 1080.46 8.25672V9.50556H1082.4L1082.15 11.4614H1080.46V16.48H1083.76C1083.95 16.48 1084.14 16.4046 1084.27 16.2704C1084.4 16.1363 1084.48 15.9544 1084.48 15.7647V4.23534C1084.48 4.04563 1084.4 3.86368 1084.27 3.72953C1084.14 3.59538 1083.95 3.52002 1083.76 3.52002Z" fill="white"/>
</svg>
