<svg width="66" height="65" viewBox="0 0 66 65" fill="none" xmlns="http://www.w3.org/2000/svg">
<path d="M57.4214 19.7167V13.5417C57.4214 10.5625 54.9839 8.125 52.0047 8.125H14.0881C12.6515 8.125 11.2737 8.69568 10.2579 9.7115C9.24207 10.7273 8.67139 12.1051 8.67139 13.5417V51.4583C8.67139 52.8949 9.24207 54.2727 10.2579 55.2885C11.2737 56.3043 12.6515 56.875 14.0881 56.875H52.0047C54.9839 56.875 57.4214 54.4375 57.4214 51.4583V45.2833C58.2401 44.8107 58.9208 44.132 59.3959 43.3148C59.871 42.4976 60.124 41.5703 60.1297 40.625V24.375C60.124 23.4297 59.871 22.5024 59.3959 21.6852C58.9208 20.8679 58.2401 20.1893 57.4214 19.7167ZM54.7131 24.375V40.625H35.7547V24.375H54.7131ZM14.0881 51.4583V13.5417H52.0047V18.9583H35.7547C32.7756 18.9583 30.3381 21.3958 30.3381 24.375V40.625C30.3381 43.6042 32.7756 46.0417 35.7547 46.0417H52.0047V51.4583H14.0881Z" fill="#22FAED"/>
<path d="M43.8797 36.5625C46.1234 36.5625 47.9422 34.7437 47.9422 32.5C47.9422 30.2563 46.1234 28.4375 43.8797 28.4375C41.6361 28.4375 39.8172 30.2563 39.8172 32.5C39.8172 34.7437 41.6361 36.5625 43.8797 36.5625Z" fill="#22FAED"/>
</svg>
