<svg width="350" height="70" viewBox="0 0 350 70" fill="none" xmlns="http://www.w3.org/2000/svg">
<rect opacity="0.5" width="350" height="70" rx="35" fill="#160E33"/>
<path d="M48.5946 38.3C46.8346 38.3 45.3346 38.02 44.0946 37.46C42.8746 36.9 41.9546 36.2 41.3346 35.36C40.7346 34.5 40.4146 33.62 40.3746 32.72C40.3746 32.54 40.4346 32.4 40.5546 32.3C40.6946 32.18 40.8546 32.12 41.0346 32.12H43.7346C44.1746 32.12 44.4646 32.32 44.6046 32.72C45.0446 34.16 46.3846 34.88 48.6246 34.88C49.8446 34.88 50.8046 34.6 51.5046 34.04C52.2046 33.46 52.5546 32.64 52.5546 31.58C52.5546 29.58 51.3046 28.58 48.8046 28.58H45.7146C45.4946 28.58 45.3146 28.51 45.1746 28.37C45.0346 28.23 44.9646 28.06 44.9646 27.86V26.6C44.9646 26.28 45.1046 25.98 45.3846 25.7L50.7546 20.45H42.1746C41.9746 20.45 41.8046 20.38 41.6646 20.24C41.5246 20.1 41.4546 19.93 41.4546 19.73V17.75C41.4546 17.53 41.5146 17.35 41.6346 17.21C41.7746 17.07 41.9546 17 42.1746 17H55.0446C55.2646 17 55.4446 17.07 55.5846 17.21C55.7246 17.35 55.7946 17.53 55.7946 17.75V19.55C55.7946 19.85 55.6646 20.13 55.4046 20.39L50.2146 25.73L50.5746 25.76C52.4946 25.92 54.0146 26.5 55.1346 27.5C56.2746 28.5 56.8446 29.93 56.8446 31.79C56.8446 33.11 56.4846 34.26 55.7646 35.24C55.0646 36.22 54.0846 36.98 52.8246 37.52C51.5846 38.04 50.1746 38.3 48.5946 38.3ZM60.2311 38C60.0311 38 59.8611 37.93 59.7211 37.79C59.5811 37.65 59.5111 37.48 59.5111 37.28V35.75C59.5111 35.21 59.7611 34.74 60.2611 34.34L65.0011 29.63C67.0611 28.01 68.4911 26.75 69.2911 25.85C70.1111 24.93 70.5211 24.03 70.5211 23.15C70.5211 22.21 70.2611 21.47 69.7411 20.93C69.2411 20.39 68.4811 20.12 67.4611 20.12C66.4611 20.12 65.6711 20.42 65.0911 21.02C64.5111 21.6 64.1511 22.36 64.0111 23.3C63.9511 23.54 63.8411 23.72 63.6811 23.84C63.5211 23.94 63.3411 23.99 63.1411 23.99H60.4711C60.2911 23.99 60.1411 23.93 60.0211 23.81C59.9011 23.69 59.8411 23.55 59.8411 23.39C59.8811 22.21 60.2011 21.11 60.8011 20.09C61.4011 19.05 62.2711 18.22 63.4111 17.6C64.5511 16.96 65.8911 16.64 67.4311 16.64C69.0311 16.64 70.3811 16.92 71.4811 17.48C72.6011 18.02 73.4411 18.77 74.0011 19.73C74.5611 20.69 74.8411 21.78 74.8411 23C74.8411 24.34 74.4611 25.55 73.7011 26.63C72.9611 27.71 71.8211 28.87 70.2811 30.11L66.0211 34.43H74.5711C74.7911 34.43 74.9611 34.5 75.0811 34.64C75.2211 34.76 75.2911 34.93 75.2911 35.15V37.28C75.2911 37.48 75.2211 37.65 75.0811 37.79C74.9611 37.93 74.7911 38 74.5711 38H60.2311Z" fill="#22FAED"/>
<path d="M44.8367 58C44.7501 58 44.6764 57.974 44.6157 57.922C44.5637 57.8613 44.5377 57.7877 44.5377 57.701V49.212C44.5377 49.1167 44.5637 49.043 44.6157 48.991C44.6764 48.9303 44.7501 48.9 44.8367 48.9H47.7877C49.0964 48.9 50.0411 49.1947 50.6217 49.784C51.2024 50.3647 51.5057 51.2443 51.5317 52.423C51.5404 52.6743 51.5447 53.0123 51.5447 53.437C51.5447 53.8617 51.5404 54.204 51.5317 54.464C51.5057 55.2873 51.3671 55.959 51.1157 56.479C50.8731 56.9903 50.4874 57.3717 49.9587 57.623C49.4301 57.8743 48.7281 58 47.8527 58H44.8367ZM47.7877 56.895C48.3857 56.895 48.8581 56.8127 49.2047 56.648C49.5601 56.4833 49.8157 56.2233 49.9717 55.868C50.1364 55.504 50.2274 55.0187 50.2447 54.412C50.2621 53.892 50.2707 53.567 50.2707 53.437C50.2707 53.2983 50.2621 52.9777 50.2447 52.475C50.2274 51.617 50.0237 50.993 49.6337 50.603C49.2437 50.2043 48.6067 50.005 47.7227 50.005H45.8117V56.895H47.7877ZM53.7996 58C53.713 58 53.6393 57.974 53.5786 57.922C53.5266 57.8613 53.5006 57.7877 53.5006 57.701V49.199C53.5006 49.1123 53.5266 49.043 53.5786 48.991C53.6393 48.9303 53.713 48.9 53.7996 48.9H54.4886C54.5753 48.9 54.6446 48.9303 54.6966 48.991C54.7573 49.043 54.7876 49.1123 54.7876 49.199V57.701C54.7876 57.7877 54.7573 57.8613 54.6966 57.922C54.6446 57.974 54.5753 58 54.4886 58H53.7996ZM56.4443 58C56.375 58 56.3143 57.974 56.2623 57.922C56.2103 57.87 56.1843 57.8093 56.1843 57.74C56.1843 57.6707 56.1886 57.623 56.1973 57.597L59.4213 49.186C59.4906 48.9953 59.6293 48.9 59.8373 48.9H60.7213C60.9293 48.9 61.068 48.9953 61.1373 49.186L64.3483 57.597L64.3743 57.74C64.3743 57.8093 64.3483 57.87 64.2963 57.922C64.2443 57.974 64.1837 58 64.1143 58H63.4513C63.356 58 63.2823 57.9783 63.2303 57.935C63.1783 57.883 63.1437 57.831 63.1263 57.779L62.4113 55.933H58.1473L57.4323 57.779C57.415 57.831 57.376 57.883 57.3153 57.935C57.2633 57.9783 57.194 58 57.1073 58H56.4443ZM62.0343 54.815L60.2793 50.2L58.5243 54.815H62.0343ZM68.5623 58.13C67.843 58.13 67.219 58.0173 66.6903 57.792C66.1703 57.5667 65.7717 57.272 65.4943 56.908C65.217 56.5353 65.0697 56.1367 65.0523 55.712C65.0523 55.6427 65.0783 55.582 65.1303 55.53C65.191 55.4693 65.2603 55.439 65.3383 55.439H66.0013C66.166 55.439 66.2787 55.5257 66.3393 55.699C66.4173 56.063 66.6383 56.375 67.0023 56.635C67.375 56.895 67.895 57.025 68.5623 57.025C69.2817 57.025 69.8233 56.8993 70.1873 56.648C70.5513 56.388 70.7333 56.0283 70.7333 55.569C70.7333 55.2743 70.6423 55.036 70.4603 54.854C70.287 54.672 70.027 54.5117 69.6803 54.373C69.3337 54.2343 68.8137 54.061 68.1203 53.853C67.4443 53.6623 66.907 53.4587 66.5083 53.242C66.1097 53.0253 65.8107 52.7567 65.6113 52.436C65.412 52.1153 65.3123 51.7123 65.3123 51.227C65.3123 50.759 65.438 50.3387 65.6893 49.966C65.9493 49.5933 66.3177 49.303 66.7943 49.095C67.271 48.8783 67.8387 48.77 68.4973 48.77C69.1733 48.77 69.754 48.8913 70.2393 49.134C70.7247 49.368 71.093 49.667 71.3443 50.031C71.5957 50.395 71.73 50.759 71.7473 51.123C71.7473 51.1923 71.7213 51.253 71.6693 51.305C71.626 51.357 71.561 51.383 71.4743 51.383H70.7853C70.6033 51.383 70.4907 51.3007 70.4473 51.136C70.3953 50.772 70.1917 50.473 69.8363 50.239C69.481 49.9963 69.0347 49.875 68.4973 49.875C67.908 49.875 67.4443 49.9877 67.1063 50.213C66.7683 50.4383 66.5993 50.772 66.5993 51.214C66.5993 51.5087 66.6773 51.7513 66.8333 51.942C66.998 52.1327 67.245 52.3017 67.5743 52.449C67.9037 52.5877 68.3847 52.748 69.0173 52.93C69.754 53.1293 70.3347 53.3373 70.7593 53.554C71.184 53.762 71.5003 54.0263 71.7083 54.347C71.9163 54.659 72.0203 55.0577 72.0203 55.543C72.0203 56.349 71.7083 56.9817 71.0843 57.441C70.4603 57.9003 69.6197 58.13 68.5623 58.13Z" fill="white"/>
<path d="M88.5329 35.45C88.4462 35.45 88.3726 35.424 88.3119 35.372C88.2599 35.3113 88.2339 35.2377 88.2339 35.151V34.241C88.2339 34.1543 88.2599 34.085 88.3119 34.033C88.3726 33.9723 88.4462 33.942 88.5329 33.942H89.4689C89.5556 33.942 89.6249 33.9723 89.6769 34.033C89.7376 34.085 89.7679 34.1543 89.7679 34.241V35.151C89.7679 35.2377 89.7376 35.3113 89.6769 35.372C89.6249 35.424 89.5556 35.45 89.4689 35.45H88.5329ZM88.5329 40C88.4462 40 88.3726 39.974 88.3119 39.922C88.2599 39.8613 88.2339 39.7877 88.2339 39.701V38.791C88.2339 38.7043 88.2599 38.635 88.3119 38.583C88.3726 38.5223 88.4462 38.492 88.5329 38.492H89.4689C89.5556 38.492 89.6249 38.5223 89.6769 38.583C89.7376 38.635 89.7679 38.7043 89.7679 38.791V39.701C89.7679 39.7877 89.7376 39.8613 89.6769 39.922C89.6249 39.974 89.5556 40 89.4689 40H88.5329Z" fill="white"/>
<path d="M115.08 38C114.88 38 114.71 37.93 114.57 37.79C114.43 37.65 114.36 37.48 114.36 37.28V21.74L109.8 25.25C109.68 25.35 109.54 25.4 109.38 25.4C109.14 25.4 108.94 25.29 108.78 25.07L107.52 23.45C107.42 23.29 107.37 23.14 107.37 23C107.37 22.76 107.48 22.56 107.7 22.4L114.42 17.21C114.6 17.07 114.85 17 115.17 17H117.81C118.03 17 118.2 17.07 118.32 17.21C118.46 17.33 118.53 17.5 118.53 17.72V37.28C118.53 37.48 118.46 37.65 118.32 37.79C118.2 37.93 118.03 38 117.81 38H115.08ZM122.726 38C122.526 38 122.356 37.93 122.216 37.79C122.076 37.65 122.006 37.48 122.006 37.28V35.75C122.006 35.21 122.256 34.74 122.756 34.34L127.496 29.63C129.556 28.01 130.986 26.75 131.786 25.85C132.606 24.93 133.016 24.03 133.016 23.15C133.016 22.21 132.756 21.47 132.236 20.93C131.736 20.39 130.976 20.12 129.956 20.12C128.956 20.12 128.166 20.42 127.586 21.02C127.006 21.6 126.646 22.36 126.506 23.3C126.446 23.54 126.336 23.72 126.176 23.84C126.016 23.94 125.836 23.99 125.636 23.99H122.966C122.786 23.99 122.636 23.93 122.516 23.81C122.396 23.69 122.336 23.55 122.336 23.39C122.376 22.21 122.696 21.11 123.296 20.09C123.896 19.05 124.766 18.22 125.906 17.6C127.046 16.96 128.386 16.64 129.926 16.64C131.526 16.64 132.876 16.92 133.976 17.48C135.096 18.02 135.936 18.77 136.496 19.73C137.056 20.69 137.336 21.78 137.336 23C137.336 24.34 136.956 25.55 136.196 26.63C135.456 27.71 134.316 28.87 132.776 30.11L128.516 34.43H137.066C137.286 34.43 137.456 34.5 137.576 34.64C137.716 34.76 137.786 34.93 137.786 35.15V37.28C137.786 37.48 137.716 37.65 137.576 37.79C137.456 37.93 137.286 38 137.066 38H122.726Z" fill="#22FAED"/>
<path d="M102.797 58C102.711 58 102.637 57.974 102.576 57.922C102.524 57.8613 102.498 57.7877 102.498 57.701V49.212C102.498 49.1167 102.524 49.043 102.576 48.991C102.637 48.9303 102.711 48.9 102.797 48.9H103.46C103.556 48.9 103.629 48.9303 103.681 48.991C103.742 49.043 103.772 49.1167 103.772 49.212V52.8H108.244V49.212C108.244 49.1167 108.27 49.043 108.322 48.991C108.383 48.9303 108.457 48.9 108.543 48.9H109.206C109.302 48.9 109.375 48.9303 109.427 48.991C109.488 49.043 109.518 49.1167 109.518 49.212V57.701C109.518 57.7877 109.488 57.8613 109.427 57.922C109.367 57.974 109.293 58 109.206 58H108.543C108.457 58 108.383 57.974 108.322 57.922C108.27 57.8613 108.244 57.7877 108.244 57.701V53.97H103.772V57.701C103.772 57.7877 103.742 57.8613 103.681 57.922C103.621 57.974 103.547 58 103.46 58H102.797ZM115.054 58.13C113.919 58.13 113.039 57.8353 112.415 57.246C111.8 56.648 111.475 55.751 111.44 54.555C111.432 54.295 111.427 53.9267 111.427 53.45C111.427 52.9733 111.432 52.6093 111.44 52.358C111.475 51.188 111.813 50.2997 112.454 49.693C113.096 49.0777 113.962 48.77 115.054 48.77C116.138 48.77 117 49.0777 117.641 49.693C118.283 50.2997 118.621 51.188 118.655 52.358C118.673 52.8607 118.681 53.2247 118.681 53.45C118.681 53.6667 118.673 54.035 118.655 54.555C118.621 55.751 118.291 56.648 117.667 57.246C117.052 57.8353 116.181 58.13 115.054 58.13ZM115.054 57.025C115.739 57.025 116.285 56.817 116.692 56.401C117.1 55.985 117.321 55.348 117.355 54.49C117.373 53.97 117.381 53.6233 117.381 53.45C117.381 53.2593 117.373 52.9127 117.355 52.41C117.321 51.552 117.095 50.915 116.679 50.499C116.272 50.083 115.73 49.875 115.054 49.875C114.37 49.875 113.819 50.083 113.403 50.499C112.996 50.915 112.775 51.552 112.74 52.41C112.732 52.6613 112.727 53.008 112.727 53.45C112.727 53.8833 112.732 54.23 112.74 54.49C112.775 55.348 112.996 55.985 113.403 56.401C113.819 56.817 114.37 57.025 115.054 57.025ZM120.875 58C120.789 58 120.715 57.974 120.654 57.922C120.602 57.8613 120.576 57.7877 120.576 57.701V49.212C120.576 49.1167 120.602 49.043 120.654 48.991C120.715 48.9303 120.789 48.9 120.875 48.9H124.047C125.044 48.9 125.824 49.134 126.387 49.602C126.951 50.07 127.232 50.746 127.232 51.63C127.232 52.2887 127.068 52.8303 126.738 53.255C126.418 53.6797 125.963 53.9743 125.373 54.139L127.375 57.597C127.401 57.649 127.414 57.6967 127.414 57.74C127.414 57.8093 127.384 57.87 127.323 57.922C127.271 57.974 127.211 58 127.141 58H126.517C126.387 58 126.283 57.9697 126.205 57.909C126.136 57.8483 126.071 57.7617 126.01 57.649L124.125 54.347H121.85V57.701C121.85 57.7877 121.82 57.8613 121.759 57.922C121.699 57.974 121.625 58 121.538 58H120.875ZM123.995 53.242C125.287 53.242 125.932 52.7003 125.932 51.617C125.932 50.5337 125.287 49.992 123.995 49.992H121.85V53.242H123.995ZM128.484 58C128.415 58 128.354 57.974 128.302 57.922C128.25 57.87 128.224 57.8093 128.224 57.74C128.224 57.6707 128.228 57.623 128.237 57.597L131.461 49.186C131.53 48.9953 131.669 48.9 131.877 48.9H132.761C132.969 48.9 133.108 48.9953 133.177 49.186L136.388 57.597L136.414 57.74C136.414 57.8093 136.388 57.87 136.336 57.922C136.284 57.974 136.223 58 136.154 58H135.491C135.396 58 135.322 57.9783 135.27 57.935C135.218 57.883 135.183 57.831 135.166 57.779L134.451 55.933H130.187L129.472 57.779C129.455 57.831 129.416 57.883 129.355 57.935C129.303 57.9783 129.234 58 129.147 58H128.484ZM134.074 54.815L132.319 50.2L130.564 54.815H134.074ZM140.602 58.13C139.883 58.13 139.259 58.0173 138.73 57.792C138.21 57.5667 137.811 57.272 137.534 56.908C137.257 56.5353 137.109 56.1367 137.092 55.712C137.092 55.6427 137.118 55.582 137.17 55.53C137.231 55.4693 137.3 55.439 137.378 55.439H138.041C138.206 55.439 138.318 55.5257 138.379 55.699C138.457 56.063 138.678 56.375 139.042 56.635C139.415 56.895 139.935 57.025 140.602 57.025C141.321 57.025 141.863 56.8993 142.227 56.648C142.591 56.388 142.773 56.0283 142.773 55.569C142.773 55.2743 142.682 55.036 142.5 54.854C142.327 54.672 142.067 54.5117 141.72 54.373C141.373 54.2343 140.853 54.061 140.16 53.853C139.484 53.6623 138.947 53.4587 138.548 53.242C138.149 53.0253 137.85 52.7567 137.651 52.436C137.452 52.1153 137.352 51.7123 137.352 51.227C137.352 50.759 137.478 50.3387 137.729 49.966C137.989 49.5933 138.357 49.303 138.834 49.095C139.311 48.8783 139.878 48.77 140.537 48.77C141.213 48.77 141.794 48.8913 142.279 49.134C142.764 49.368 143.133 49.667 143.384 50.031C143.635 50.395 143.77 50.759 143.787 51.123C143.787 51.1923 143.761 51.253 143.709 51.305C143.666 51.357 143.601 51.383 143.514 51.383H142.825C142.643 51.383 142.53 51.3007 142.487 51.136C142.435 50.772 142.231 50.473 141.876 50.239C141.521 49.9963 141.074 49.875 140.537 49.875C139.948 49.875 139.484 49.9877 139.146 50.213C138.808 50.4383 138.639 50.772 138.639 51.214C138.639 51.5087 138.717 51.7513 138.873 51.942C139.038 52.1327 139.285 52.3017 139.614 52.449C139.943 52.5877 140.424 52.748 141.057 52.93C141.794 53.1293 142.374 53.3373 142.799 53.554C143.224 53.762 143.54 54.0263 143.748 54.347C143.956 54.659 144.06 55.0577 144.06 55.543C144.06 56.349 143.748 56.9817 143.124 57.441C142.5 57.9003 141.659 58.13 140.602 58.13Z" fill="white"/>
<path d="M157.533 35.45C157.446 35.45 157.373 35.424 157.312 35.372C157.26 35.3113 157.234 35.2377 157.234 35.151V34.241C157.234 34.1543 157.26 34.085 157.312 34.033C157.373 33.9723 157.446 33.942 157.533 33.942H158.469C158.556 33.942 158.625 33.9723 158.677 34.033C158.738 34.085 158.768 34.1543 158.768 34.241V35.151C158.768 35.2377 158.738 35.3113 158.677 35.372C158.625 35.424 158.556 35.45 158.469 35.45H157.533ZM157.533 40C157.446 40 157.373 39.974 157.312 39.922C157.26 39.8613 157.234 39.7877 157.234 39.701V38.791C157.234 38.7043 157.26 38.635 157.312 38.583C157.373 38.5223 157.446 38.492 157.533 38.492H158.469C158.556 38.492 158.625 38.5223 158.677 38.583C158.738 38.635 158.768 38.7043 158.768 38.791V39.701C158.768 39.7877 158.738 39.8613 158.677 39.922C158.625 39.974 158.556 40 158.469 40H157.533Z" fill="white"/>
<path d="M181.835 38C181.635 38 181.465 37.93 181.325 37.79C181.185 37.65 181.115 37.48 181.115 37.28V35.75C181.115 35.21 181.365 34.74 181.865 34.34L186.605 29.63C188.665 28.01 190.095 26.75 190.895 25.85C191.715 24.93 192.125 24.03 192.125 23.15C192.125 22.21 191.865 21.47 191.345 20.93C190.845 20.39 190.085 20.12 189.065 20.12C188.065 20.12 187.275 20.42 186.695 21.02C186.115 21.6 185.755 22.36 185.615 23.3C185.555 23.54 185.445 23.72 185.285 23.84C185.125 23.94 184.945 23.99 184.745 23.99H182.075C181.895 23.99 181.745 23.93 181.625 23.81C181.505 23.69 181.445 23.55 181.445 23.39C181.485 22.21 181.805 21.11 182.405 20.09C183.005 19.05 183.875 18.22 185.015 17.6C186.155 16.96 187.495 16.64 189.035 16.64C190.635 16.64 191.985 16.92 193.085 17.48C194.205 18.02 195.045 18.77 195.605 19.73C196.165 20.69 196.445 21.78 196.445 23C196.445 24.34 196.065 25.55 195.305 26.63C194.565 27.71 193.425 28.87 191.885 30.11L187.625 34.43H196.175C196.395 34.43 196.565 34.5 196.685 34.64C196.825 34.76 196.895 34.93 196.895 35.15V37.28C196.895 37.48 196.825 37.65 196.685 37.79C196.565 37.93 196.395 38 196.175 38H181.835ZM207.669 38.3C205.909 38.3 204.409 38.02 203.169 37.46C201.949 36.9 201.029 36.2 200.409 35.36C199.809 34.5 199.489 33.62 199.449 32.72C199.449 32.54 199.509 32.4 199.629 32.3C199.769 32.18 199.929 32.12 200.109 32.12H202.809C203.249 32.12 203.539 32.32 203.679 32.72C204.119 34.16 205.459 34.88 207.699 34.88C208.919 34.88 209.879 34.6 210.579 34.04C211.279 33.46 211.629 32.64 211.629 31.58C211.629 29.58 210.379 28.58 207.879 28.58H204.789C204.569 28.58 204.389 28.51 204.249 28.37C204.109 28.23 204.039 28.06 204.039 27.86V26.6C204.039 26.28 204.179 25.98 204.459 25.7L209.829 20.45H201.249C201.049 20.45 200.879 20.38 200.739 20.24C200.599 20.1 200.529 19.93 200.529 19.73V17.75C200.529 17.53 200.589 17.35 200.709 17.21C200.849 17.07 201.029 17 201.249 17H214.119C214.339 17 214.519 17.07 214.659 17.21C214.799 17.35 214.869 17.53 214.869 17.75V19.55C214.869 19.85 214.739 20.13 214.479 20.39L209.289 25.73L209.649 25.76C211.569 25.92 213.089 26.5 214.209 27.5C215.349 28.5 215.919 29.93 215.919 31.79C215.919 33.11 215.559 34.26 214.839 35.24C214.139 36.22 213.159 36.98 211.899 37.52C210.659 38.04 209.249 38.3 207.669 38.3Z" fill="#22FAED"/>
<path d="M171.804 58C171.717 58 171.643 57.974 171.583 57.922C171.531 57.8613 171.505 57.7877 171.505 57.701V49.212C171.505 49.1167 171.531 49.043 171.583 48.991C171.643 48.9303 171.717 48.9 171.804 48.9H172.454C172.592 48.9 172.705 48.9693 172.792 49.108L175.535 54.36L178.304 49.108C178.321 49.056 178.356 49.0083 178.408 48.965C178.468 48.9217 178.542 48.9 178.629 48.9H179.266C179.361 48.9 179.435 48.9303 179.487 48.991C179.547 49.043 179.578 49.1167 179.578 49.212V57.701C179.578 57.7877 179.547 57.8613 179.487 57.922C179.426 57.974 179.352 58 179.266 58H178.629C178.542 58 178.468 57.974 178.408 57.922C178.356 57.8613 178.33 57.7877 178.33 57.701V51.305L176.159 55.543C176.072 55.725 175.933 55.816 175.743 55.816H175.34C175.149 55.816 175.01 55.725 174.924 55.543L172.74 51.305V57.701C172.74 57.7877 172.709 57.8613 172.649 57.922C172.597 57.974 172.527 58 172.441 58H171.804ZM182.125 58C182.038 58 181.964 57.974 181.904 57.922C181.852 57.8613 181.826 57.7877 181.826 57.701V49.199C181.826 49.1123 181.852 49.043 181.904 48.991C181.964 48.9303 182.038 48.9 182.125 48.9H182.814C182.9 48.9 182.97 48.9303 183.022 48.991C183.082 49.043 183.113 49.1123 183.113 49.199V57.701C183.113 57.7877 183.082 57.8613 183.022 57.922C182.97 57.974 182.9 58 182.814 58H182.125ZM185.68 58C185.593 58 185.519 57.974 185.459 57.922C185.407 57.8613 185.381 57.7877 185.381 57.701V49.212C185.381 49.1167 185.407 49.043 185.459 48.991C185.519 48.9303 185.593 48.9 185.68 48.9H186.278C186.434 48.9 186.542 48.9607 186.603 49.082L190.919 55.712V49.212C190.919 49.1167 190.945 49.043 190.997 48.991C191.057 48.9303 191.131 48.9 191.218 48.9H191.842C191.937 48.9 192.011 48.9303 192.063 48.991C192.123 49.043 192.154 49.1167 192.154 49.212V57.688C192.154 57.7747 192.123 57.8483 192.063 57.909C192.011 57.9697 191.941 58 191.855 58H191.231C191.101 58 190.997 57.9393 190.919 57.818L186.616 51.253V57.701C186.616 57.7877 186.585 57.8613 186.525 57.922C186.464 57.974 186.39 58 186.304 58H185.68ZM197.852 58.13C196.734 58.13 195.867 57.831 195.252 57.233C194.645 56.6263 194.342 55.712 194.342 54.49V49.212C194.342 49.1167 194.368 49.043 194.42 48.991C194.48 48.9303 194.554 48.9 194.641 48.9H195.304C195.399 48.9 195.473 48.9303 195.525 48.991C195.585 49.043 195.616 49.1167 195.616 49.212V54.516C195.616 55.348 195.811 55.972 196.201 56.388C196.591 56.804 197.141 57.012 197.852 57.012C198.562 57.012 199.113 56.804 199.503 56.388C199.893 55.972 200.088 55.348 200.088 54.516V49.212C200.088 49.1167 200.114 49.043 200.166 48.991C200.226 48.9303 200.3 48.9 200.387 48.9H201.063C201.149 48.9 201.219 48.9303 201.271 48.991C201.331 49.0517 201.362 49.1253 201.362 49.212V54.49C201.362 55.712 201.054 56.6263 200.439 57.233C199.832 57.831 198.97 58.13 197.852 58.13ZM205.823 58C205.736 58 205.662 57.974 205.602 57.922C205.55 57.8613 205.524 57.7877 205.524 57.701V50.057H203.028C202.941 50.057 202.867 50.031 202.807 49.979C202.755 49.9183 202.729 49.8447 202.729 49.758V49.212C202.729 49.1253 202.755 49.0517 202.807 48.991C202.867 48.9303 202.941 48.9 203.028 48.9H209.294C209.389 48.9 209.463 48.9303 209.515 48.991C209.575 49.043 209.606 49.1167 209.606 49.212V49.758C209.606 49.8447 209.575 49.9183 209.515 49.979C209.454 50.031 209.38 50.057 209.294 50.057H206.811V57.701C206.811 57.7877 206.78 57.8613 206.72 57.922C206.659 57.974 206.585 58 206.499 58H205.823ZM214.149 58.13C213.013 58.13 212.134 57.8353 211.51 57.246C210.894 56.648 210.569 55.751 210.535 54.555C210.526 54.295 210.522 53.9267 210.522 53.45C210.522 52.9733 210.526 52.6093 210.535 52.358C210.569 51.188 210.907 50.2997 211.549 49.693C212.19 49.0777 213.057 48.77 214.149 48.77C215.232 48.77 216.094 49.0777 216.736 49.693C217.377 50.2997 217.715 51.188 217.75 52.358C217.767 52.8607 217.776 53.2247 217.776 53.45C217.776 53.6667 217.767 54.035 217.75 54.555C217.715 55.751 217.386 56.648 216.762 57.246C216.146 57.8353 215.275 58.13 214.149 58.13ZM214.149 57.025C214.833 57.025 215.379 56.817 215.787 56.401C216.194 55.985 216.415 55.348 216.45 54.49C216.467 53.97 216.476 53.6233 216.476 53.45C216.476 53.2593 216.467 52.9127 216.45 52.41C216.415 51.552 216.19 50.915 215.774 50.499C215.366 50.083 214.825 49.875 214.149 49.875C213.464 49.875 212.914 50.083 212.498 50.499C212.09 50.915 211.869 51.552 211.835 52.41C211.826 52.6613 211.822 53.008 211.822 53.45C211.822 53.8833 211.826 54.23 211.835 54.49C211.869 55.348 212.09 55.985 212.498 56.401C212.914 56.817 213.464 57.025 214.149 57.025ZM222.596 58.13C221.876 58.13 221.252 58.0173 220.724 57.792C220.204 57.5667 219.805 57.272 219.528 56.908C219.25 56.5353 219.103 56.1367 219.086 55.712C219.086 55.6427 219.112 55.582 219.164 55.53C219.224 55.4693 219.294 55.439 219.372 55.439H220.035C220.199 55.439 220.312 55.5257 220.373 55.699C220.451 56.063 220.672 56.375 221.036 56.635C221.408 56.895 221.928 57.025 222.596 57.025C223.315 57.025 223.857 56.8993 224.221 56.648C224.585 56.388 224.767 56.0283 224.767 55.569C224.767 55.2743 224.676 55.036 224.494 54.854C224.32 54.672 224.06 54.5117 223.714 54.373C223.367 54.2343 222.847 54.061 222.154 53.853C221.478 53.6623 220.94 53.4587 220.542 53.242C220.143 53.0253 219.844 52.7567 219.645 52.436C219.445 52.1153 219.346 51.7123 219.346 51.227C219.346 50.759 219.471 50.3387 219.723 49.966C219.983 49.5933 220.351 49.303 220.828 49.095C221.304 48.8783 221.872 48.77 222.531 48.77C223.207 48.77 223.787 48.8913 224.273 49.134C224.758 49.368 225.126 49.667 225.378 50.031C225.629 50.395 225.763 50.759 225.781 51.123C225.781 51.1923 225.755 51.253 225.703 51.305C225.659 51.357 225.594 51.383 225.508 51.383H224.819C224.637 51.383 224.524 51.3007 224.481 51.136C224.429 50.772 224.225 50.473 223.87 50.239C223.514 49.9963 223.068 49.875 222.531 49.875C221.941 49.875 221.478 49.9877 221.14 50.213C220.802 50.4383 220.633 50.772 220.633 51.214C220.633 51.5087 220.711 51.7513 220.867 51.942C221.031 52.1327 221.278 52.3017 221.608 52.449C221.937 52.5877 222.418 52.748 223.051 52.93C223.787 53.1293 224.368 53.3373 224.793 53.554C225.217 53.762 225.534 54.0263 225.742 54.347C225.95 54.659 226.054 55.0577 226.054 55.543C226.054 56.349 225.742 56.9817 225.118 57.441C224.494 57.9003 223.653 58.13 222.596 58.13Z" fill="white"/>
<path d="M237.533 35.45C237.446 35.45 237.373 35.424 237.312 35.372C237.26 35.3113 237.234 35.2377 237.234 35.151V34.241C237.234 34.1543 237.26 34.085 237.312 34.033C237.373 33.9723 237.446 33.942 237.533 33.942H238.469C238.556 33.942 238.625 33.9723 238.677 34.033C238.738 34.085 238.768 34.1543 238.768 34.241V35.151C238.768 35.2377 238.738 35.3113 238.677 35.372C238.625 35.424 238.556 35.45 238.469 35.45H237.533ZM237.533 40C237.446 40 237.373 39.974 237.312 39.922C237.26 39.8613 237.234 39.7877 237.234 39.701V38.791C237.234 38.7043 237.26 38.635 237.312 38.583C237.373 38.5223 237.446 38.492 237.533 38.492H238.469C238.556 38.492 238.625 38.5223 238.677 38.583C238.738 38.635 238.768 38.7043 238.768 38.791V39.701C238.768 39.7877 238.738 39.8613 238.677 39.922C238.625 39.974 238.556 40 238.469 40H237.533Z" fill="white"/>
<path d="M275.08 38.3C273.32 38.3 271.82 38.02 270.58 37.46C269.36 36.9 268.44 36.2 267.82 35.36C267.22 34.5 266.9 33.62 266.86 32.72C266.86 32.54 266.92 32.4 267.04 32.3C267.18 32.18 267.34 32.12 267.52 32.12H270.22C270.66 32.12 270.95 32.32 271.09 32.72C271.53 34.16 272.87 34.88 275.11 34.88C276.33 34.88 277.29 34.6 277.99 34.04C278.69 33.46 279.04 32.64 279.04 31.58C279.04 29.58 277.79 28.58 275.29 28.58H272.2C271.98 28.58 271.8 28.51 271.66 28.37C271.52 28.23 271.45 28.06 271.45 27.86V26.6C271.45 26.28 271.59 25.98 271.87 25.7L277.24 20.45H268.66C268.46 20.45 268.29 20.38 268.15 20.24C268.01 20.1 267.94 19.93 267.94 19.73V17.75C267.94 17.53 268 17.35 268.12 17.21C268.26 17.07 268.44 17 268.66 17H281.53C281.75 17 281.93 17.07 282.07 17.21C282.21 17.35 282.28 17.53 282.28 17.75V19.55C282.28 19.85 282.15 20.13 281.89 20.39L276.7 25.73L277.06 25.76C278.98 25.92 280.5 26.5 281.62 27.5C282.76 28.5 283.33 29.93 283.33 31.79C283.33 33.11 282.97 34.26 282.25 35.24C281.55 36.22 280.57 36.98 279.31 37.52C278.07 38.04 276.66 38.3 275.08 38.3ZM293.826 38.33C292.166 38.33 290.736 38.05 289.536 37.49C288.356 36.93 287.446 36.19 286.806 35.27C286.186 34.35 285.856 33.36 285.816 32.3V32.24C285.816 32.08 285.876 31.95 285.996 31.85C286.116 31.75 286.266 31.7 286.446 31.7H289.236C289.696 31.7 289.996 31.9 290.136 32.3C290.416 33.18 290.876 33.83 291.516 34.25C292.176 34.67 292.946 34.88 293.826 34.88C294.946 34.88 295.876 34.54 296.616 33.86C297.376 33.18 297.756 32.23 297.756 31.01C297.756 29.93 297.376 29.05 296.616 28.37C295.876 27.69 294.946 27.35 293.826 27.35C293.226 27.35 292.736 27.43 292.356 27.59C291.976 27.75 291.606 27.97 291.246 28.25C291.006 28.43 290.816 28.56 290.676 28.64C290.556 28.7 290.406 28.73 290.226 28.73H287.466C287.286 28.73 287.126 28.67 286.986 28.55C286.866 28.41 286.806 28.25 286.806 28.07L287.856 17.81C287.876 17.57 287.956 17.38 288.096 17.24C288.256 17.08 288.456 17 288.696 17H299.976C300.176 17 300.346 17.07 300.486 17.21C300.626 17.35 300.696 17.52 300.696 17.72V19.73C300.696 19.93 300.626 20.1 300.486 20.24C300.346 20.38 300.176 20.45 299.976 20.45H291.306L290.826 25.34C291.806 24.66 293.116 24.32 294.756 24.32C296.056 24.32 297.256 24.6 298.356 25.16C299.476 25.7 300.366 26.49 301.026 27.53C301.686 28.55 302.016 29.74 302.016 31.1C302.016 32.56 301.676 33.84 300.996 34.94C300.316 36.02 299.356 36.86 298.116 37.46C296.896 38.04 295.466 38.33 293.826 38.33Z" fill="#22FAED"/>
<path d="M254.19 58.13C253.47 58.13 252.846 58.0173 252.318 57.792C251.798 57.5667 251.399 57.272 251.122 56.908C250.844 56.5353 250.697 56.1367 250.68 55.712C250.68 55.6427 250.706 55.582 250.758 55.53C250.818 55.4693 250.888 55.439 250.966 55.439H251.629C251.793 55.439 251.906 55.5257 251.967 55.699C252.045 56.063 252.266 56.375 252.63 56.635C253.002 56.895 253.522 57.025 254.19 57.025C254.909 57.025 255.451 56.8993 255.815 56.648C256.179 56.388 256.361 56.0283 256.361 55.569C256.361 55.2743 256.27 55.036 256.088 54.854C255.914 54.672 255.654 54.5117 255.308 54.373C254.961 54.2343 254.441 54.061 253.748 53.853C253.072 53.6623 252.534 53.4587 252.136 53.242C251.737 53.0253 251.438 52.7567 251.239 52.436C251.039 52.1153 250.94 51.7123 250.94 51.227C250.94 50.759 251.065 50.3387 251.317 49.966C251.577 49.5933 251.945 49.303 252.422 49.095C252.898 48.8783 253.466 48.77 254.125 48.77C254.801 48.77 255.381 48.8913 255.867 49.134C256.352 49.368 256.72 49.667 256.972 50.031C257.223 50.395 257.357 50.759 257.375 51.123C257.375 51.1923 257.349 51.253 257.297 51.305C257.253 51.357 257.188 51.383 257.102 51.383H256.413C256.231 51.383 256.118 51.3007 256.075 51.136C256.023 50.772 255.819 50.473 255.464 50.239C255.108 49.9963 254.662 49.875 254.125 49.875C253.535 49.875 253.072 49.9877 252.734 50.213C252.396 50.4383 252.227 50.772 252.227 51.214C252.227 51.5087 252.305 51.7513 252.461 51.942C252.625 52.1327 252.872 52.3017 253.202 52.449C253.531 52.5877 254.012 52.748 254.645 52.93C255.381 53.1293 255.962 53.3373 256.387 53.554C256.811 53.762 257.128 54.0263 257.336 54.347C257.544 54.659 257.648 55.0577 257.648 55.543C257.648 56.349 257.336 56.9817 256.712 57.441C256.088 57.9003 255.247 58.13 254.19 58.13ZM259.651 58C259.564 58 259.49 57.974 259.43 57.922C259.378 57.8613 259.352 57.7877 259.352 57.701V49.212C259.352 49.1167 259.378 49.043 259.43 48.991C259.49 48.9303 259.564 48.9 259.651 48.9H265.02C265.106 48.9 265.176 48.9303 265.228 48.991C265.288 49.043 265.319 49.1167 265.319 49.212V49.706C265.319 49.7927 265.293 49.8663 265.241 49.927C265.189 49.979 265.115 50.005 265.02 50.005H260.6V52.852H264.734C264.82 52.852 264.89 52.8823 264.942 52.943C265.002 52.995 265.033 53.0687 265.033 53.164V53.645C265.033 53.7317 265.002 53.8053 264.942 53.866C264.89 53.918 264.82 53.944 264.734 53.944H260.6V56.895H265.124C265.219 56.895 265.293 56.921 265.345 56.973C265.397 57.025 265.423 57.0987 265.423 57.194V57.701C265.423 57.7877 265.392 57.8613 265.332 57.922C265.28 57.974 265.21 58 265.124 58H259.651ZM270.462 58.13C269.326 58.13 268.442 57.8223 267.81 57.207C267.186 56.583 266.852 55.7337 266.809 54.659C266.8 54.399 266.796 53.9917 266.796 53.437C266.796 52.8737 266.8 52.4663 266.809 52.215C266.852 51.149 267.19 50.3083 267.823 49.693C268.455 49.0777 269.335 48.77 270.462 48.77C271.224 48.77 271.87 48.9087 272.399 49.186C272.936 49.4547 273.339 49.784 273.608 50.174C273.876 50.564 274.019 50.928 274.037 51.266V51.292C274.037 51.3613 274.011 51.4177 273.959 51.461C273.907 51.5043 273.842 51.526 273.764 51.526H272.997C272.91 51.526 272.845 51.513 272.802 51.487C272.767 51.4523 272.732 51.3873 272.698 51.292C272.568 50.902 272.316 50.5683 271.944 50.291C271.58 50.0137 271.086 49.875 270.462 49.875C269.742 49.875 269.179 50.07 268.772 50.46C268.364 50.85 268.143 51.4567 268.109 52.28C268.1 52.5313 268.096 52.917 268.096 53.437C268.096 53.9483 268.1 54.334 268.109 54.594C268.143 55.426 268.364 56.0413 268.772 56.44C269.179 56.83 269.742 57.025 270.462 57.025C271.19 57.025 271.77 56.8257 272.204 56.427C272.637 56.0283 272.854 55.4303 272.854 54.633V54.087H270.904C270.817 54.087 270.743 54.061 270.683 54.009C270.631 53.9483 270.605 53.8703 270.605 53.775V53.359C270.605 53.2723 270.631 53.1987 270.683 53.138C270.743 53.0773 270.817 53.047 270.904 53.047H273.842C273.928 53.047 273.998 53.0773 274.05 53.138C274.11 53.19 274.141 53.2637 274.141 53.359V54.607C274.141 55.3177 273.993 55.9373 273.699 56.466C273.404 56.9947 272.979 57.4063 272.425 57.701C271.87 57.987 271.216 58.13 270.462 58.13ZM279.427 58.13C278.309 58.13 277.443 57.831 276.827 57.233C276.221 56.6263 275.917 55.712 275.917 54.49V49.212C275.917 49.1167 275.943 49.043 275.995 48.991C276.056 48.9303 276.13 48.9 276.216 48.9H276.879C276.975 48.9 277.048 48.9303 277.1 48.991C277.161 49.043 277.191 49.1167 277.191 49.212V54.516C277.191 55.348 277.386 55.972 277.776 56.388C278.166 56.804 278.717 57.012 279.427 57.012C280.138 57.012 280.688 56.804 281.078 56.388C281.468 55.972 281.663 55.348 281.663 54.516V49.212C281.663 49.1167 281.689 49.043 281.741 48.991C281.802 48.9303 281.876 48.9 281.962 48.9H282.638C282.725 48.9 282.794 48.9303 282.846 48.991C282.907 49.0517 282.937 49.1253 282.937 49.212V54.49C282.937 55.712 282.63 56.6263 282.014 57.233C281.408 57.831 280.545 58.13 279.427 58.13ZM285.409 58C285.323 58 285.249 57.974 285.188 57.922C285.136 57.8613 285.11 57.7877 285.11 57.701V49.212C285.11 49.1167 285.136 49.043 285.188 48.991C285.249 48.9303 285.323 48.9 285.409 48.9H286.007C286.163 48.9 286.272 48.9607 286.332 49.082L290.648 55.712V49.212C290.648 49.1167 290.674 49.043 290.726 48.991C290.787 48.9303 290.861 48.9 290.947 48.9H291.571C291.667 48.9 291.74 48.9303 291.792 48.991C291.853 49.043 291.883 49.1167 291.883 49.212V57.688C291.883 57.7747 291.853 57.8483 291.792 57.909C291.74 57.9697 291.671 58 291.584 58H290.96C290.83 58 290.726 57.9393 290.648 57.818L286.345 51.253V57.701C286.345 57.7877 286.315 57.8613 286.254 57.922C286.194 57.974 286.12 58 286.033 58H285.409ZM294.449 58C294.362 58 294.288 57.974 294.228 57.922C294.176 57.8613 294.15 57.7877 294.15 57.701V49.212C294.15 49.1167 294.176 49.043 294.228 48.991C294.288 48.9303 294.362 48.9 294.449 48.9H297.4C298.708 48.9 299.653 49.1947 300.234 49.784C300.814 50.3647 301.118 51.2443 301.144 52.423C301.152 52.6743 301.157 53.0123 301.157 53.437C301.157 53.8617 301.152 54.204 301.144 54.464C301.118 55.2873 300.979 55.959 300.728 56.479C300.485 56.9903 300.099 57.3717 299.571 57.623C299.042 57.8743 298.34 58 297.465 58H294.449ZM297.4 56.895C297.998 56.895 298.47 56.8127 298.817 56.648C299.172 56.4833 299.428 56.2233 299.584 55.868C299.748 55.504 299.839 55.0187 299.857 54.412C299.874 53.892 299.883 53.567 299.883 53.437C299.883 53.2983 299.874 52.9777 299.857 52.475C299.839 51.617 299.636 50.993 299.246 50.603C298.856 50.2043 298.219 50.005 297.335 50.005H295.424V56.895H297.4ZM306.388 58.13C305.253 58.13 304.373 57.8353 303.749 57.246C303.134 56.648 302.809 55.751 302.774 54.555C302.766 54.295 302.761 53.9267 302.761 53.45C302.761 52.9733 302.766 52.6093 302.774 52.358C302.809 51.188 303.147 50.2997 303.788 49.693C304.43 49.0777 305.296 48.77 306.388 48.77C307.472 48.77 308.334 49.0777 308.975 49.693C309.617 50.2997 309.955 51.188 309.989 52.358C310.007 52.8607 310.015 53.2247 310.015 53.45C310.015 53.6667 310.007 54.035 309.989 54.555C309.955 55.751 309.625 56.648 309.001 57.246C308.386 57.8353 307.515 58.13 306.388 58.13ZM306.388 57.025C307.073 57.025 307.619 56.817 308.026 56.401C308.434 55.985 308.655 55.348 308.689 54.49C308.707 53.97 308.715 53.6233 308.715 53.45C308.715 53.2593 308.707 52.9127 308.689 52.41C308.655 51.552 308.429 50.915 308.013 50.499C307.606 50.083 307.064 49.875 306.388 49.875C305.704 49.875 305.153 50.083 304.737 50.499C304.33 50.915 304.109 51.552 304.074 52.41C304.066 52.6613 304.061 53.008 304.061 53.45C304.061 53.8833 304.066 54.23 304.074 54.49C304.109 55.348 304.33 55.985 304.737 56.401C305.153 56.817 305.704 57.025 306.388 57.025ZM314.835 58.13C314.116 58.13 313.492 58.0173 312.963 57.792C312.443 57.5667 312.045 57.272 311.767 56.908C311.49 56.5353 311.343 56.1367 311.325 55.712C311.325 55.6427 311.351 55.582 311.403 55.53C311.464 55.4693 311.533 55.439 311.611 55.439H312.274C312.439 55.439 312.552 55.5257 312.612 55.699C312.69 56.063 312.911 56.375 313.275 56.635C313.648 56.895 314.168 57.025 314.835 57.025C315.555 57.025 316.096 56.8993 316.46 56.648C316.824 56.388 317.006 56.0283 317.006 55.569C317.006 55.2743 316.915 55.036 316.733 54.854C316.56 54.672 316.3 54.5117 315.953 54.373C315.607 54.2343 315.087 54.061 314.393 53.853C313.717 53.6623 313.18 53.4587 312.781 53.242C312.383 53.0253 312.084 52.7567 311.884 52.436C311.685 52.1153 311.585 51.7123 311.585 51.227C311.585 50.759 311.711 50.3387 311.962 49.966C312.222 49.5933 312.591 49.303 313.067 49.095C313.544 48.8783 314.112 48.77 314.77 48.77C315.446 48.77 316.027 48.8913 316.512 49.134C316.998 49.368 317.366 49.667 317.617 50.031C317.869 50.395 318.003 50.759 318.02 51.123C318.02 51.1923 317.994 51.253 317.942 51.305C317.899 51.357 317.834 51.383 317.747 51.383H317.058C316.876 51.383 316.764 51.3007 316.72 51.136C316.668 50.772 316.465 50.473 316.109 50.239C315.754 49.9963 315.308 49.875 314.77 49.875C314.181 49.875 313.717 49.9877 313.379 50.213C313.041 50.4383 312.872 50.772 312.872 51.214C312.872 51.5087 312.95 51.7513 313.106 51.942C313.271 52.1327 313.518 52.3017 313.847 52.449C314.177 52.5877 314.658 52.748 315.29 52.93C316.027 53.1293 316.608 53.3373 317.032 53.554C317.457 53.762 317.773 54.0263 317.981 54.347C318.189 54.659 318.293 55.0577 318.293 55.543C318.293 56.349 317.981 56.9817 317.357 57.441C316.733 57.9003 315.893 58.13 314.835 58.13Z" fill="white"/>
</svg>
