<svg width="66" height="65" viewBox="0 0 66 65" fill="none" xmlns="http://www.w3.org/2000/svg">
<path d="M51.6078 13.5417H46.1911V8.125H19.1078V13.5417H13.6911C10.712 13.5417 8.27448 15.9792 8.27448 18.9583V21.6667C8.27448 28.5729 13.4745 34.2062 20.1641 35.0458C21.0206 37.0753 22.3584 38.8658 24.0618 40.2625C25.7652 41.6593 27.7831 42.6203 29.9411 43.0625V51.4583H19.1078V56.875H46.1911V51.4583H35.3578V43.0625C37.5158 42.6203 39.5337 41.6593 41.2372 40.2625C42.9406 38.8658 44.2784 37.0753 45.1349 35.0458C51.8245 34.2062 57.0245 28.5729 57.0245 21.6667V18.9583C57.0245 15.9792 54.587 13.5417 51.6078 13.5417ZM13.6911 21.6667V18.9583H19.1078V29.3042C15.9661 28.1667 13.6911 25.1875 13.6911 21.6667ZM32.6495 37.9167C28.1807 37.9167 24.5245 34.2604 24.5245 29.7917V13.5417H40.7745V29.7917C40.7745 34.2604 37.1182 37.9167 32.6495 37.9167ZM51.6078 21.6667C51.6078 25.1875 49.3328 28.1667 46.1911 29.3042V18.9583H51.6078V21.6667Z" fill="#22FAED"/>
</svg>
